<svg xmlns="http://www.w3.org/2000/svg" viewBox="0 0 128 128" style="enable-background:new 0 0 128 128" xml:space="preserve"><radialGradient id="a" cx="68.9" cy="124.3" r="70.6" gradientTransform="matrix(-1 -.00434 -.00713 1.6408 132 -79)" gradientUnits="userSpaceOnUse"><stop offset=".3" style="stop-color:#ff9800"/><stop offset=".7" style="stop-color:#ff6d00"/><stop offset="1" style="stop-color:#f44336"/></radialGradient><path style="fill:url(#a)" d="M36 41c-1 6-1 17 2 21 0 0-2-12 14-26 6-6 7-15 5-21l-5-8c-1-1-1-3 1-3 10 0 26 3 33 20 3 8 3 15 1 23 0 5-4 16 4 18 5 1 7-3 9-6 0-2 2-2 3-1 8 10 9 22 7 32-3 20-23 34-43 34-25 0-44-14-49-40-2-10-1-30 15-45 1-1 3 0 3 2z"/><radialGradient id="b" cx="64.9" cy="54.1" r="73.9" gradientTransform="matrix(-.0101 .9999 .7525 .0076 26 -11)" gradientUnits="userSpaceOnUse"><stop offset=".2" style="stop-color:#fff176"/><stop offset=".3" style="stop-color:#fff27d"/><stop offset=".5" style="stop-color:#fff48f"/><stop offset=".7" style="stop-color:#fff7ad"/><stop offset=".8" style="stop-color:#fff9c4"/><stop offset=".8" style="stop-color:#fff8bd;stop-opacity:.804"/><stop offset=".9" style="stop-color:#fff6ab;stop-opacity:.529"/><stop offset=".9" style="stop-color:#fff38d;stop-opacity:.2088"/><stop offset=".9" style="stop-color:#fff176;stop-opacity:0"/></radialGradient><path style="fill:url(#b)" d="M76 77c-9-11-5-25-3-30 1-1 0-1-1-1-4 3-12 9-15 18-6 12-5 18-2 25 2 4 0 5-2 5l-2-1-5-8h-1c-3 4-4 10-4 14-1 14 11 25 24 25 17 0 30-19 20-35l-9-12z"/></svg>