<?xml version="1.0" encoding="UTF-8" standalone="no"?>
<svg
   width="161"
   height="161"
   version="1.1"
   id="svg72977"
   sodipodi:docname="hex.svg"
   xml:space="preserve"
   inkscape:version="1.2 (dc2aedaf03, 2022-05-15)"
   xmlns:inkscape="http://www.inkscape.org/namespaces/inkscape"
   xmlns:sodipodi="http://sodipodi.sourceforge.net/DTD/sodipodi-0.dtd"
   xmlns="http://www.w3.org/2000/svg"
   xmlns:svg="http://www.w3.org/2000/svg"><defs
     id="defs72981"><inkscape:path-effect
       effect="powerclip"
       id="path-effect74938"
       is_visible="true"
       lpeversion="1"
       inverse="true"
       flatten="false"
       hide_clip="false"
       message="Use fill-rule evenodd on &lt;b&gt;fill and stroke&lt;/b&gt; dialog if no flatten result after convert clip to paths." /><clipPath
       clipPathUnits="userSpaceOnUse"
       id="clipPath74934"><path
         d="M 33.954236,75.537265 H 74.910198 V 34.581303 H 33.954236 m 10.238991,10.238991 h 20.47798 v 20.47798 H 44.193227 M 85.149192,126.73224 H 126.10515 V 85.776255 H 85.149192 M 95.388184,96.015239 H 115.86616 V 116.49326 H 95.388184 M 33.954236,126.73224 H 74.910198 V 85.776255 H 33.954236 m 10.238991,10.238984 h 20.47798 V 116.49326 H 44.193227 M 85.149192,34.581303 V 75.537265 H 126.10515 V 34.581303 M 115.86616,65.298274 H 95.388184 v -20.47798 h 20.477976 z"
         id="path74936"
         style="display:none;stroke-width:5.11949" /><path
         id="lpe_path-effect74938"
         style="stroke-width:5.11949"
         class="powerclip"
         d="M 4.4859169,-3.2512887 H 156.51408 V 164.25129 H 4.4859169 Z M 33.954236,75.537265 H 74.910198 V 34.581303 H 33.954236 m 10.238991,30.716971 h 20.47798 V 44.820294 H 44.193227 M 85.149192,126.73224 H 126.10515 V 85.776255 H 85.149192 M 95.388184,116.49326 H 115.86616 V 96.015239 H 95.388184 M 33.954236,126.73224 H 74.910198 V 85.776255 H 33.954236 m 10.238991,30.717005 h 20.47798 V 96.015239 H 44.193227 M 85.149192,34.581303 V 75.537265 H 126.10515 V 34.581303 M 115.86616,65.298274 V 44.820294 H 95.388184 v 20.47798 z" /></clipPath></defs><sodipodi:namedview
     id="namedview72979"
     pagecolor="#ffffff"
     bordercolor="#000000"
     borderopacity="0.25"
     inkscape:showpageshadow="2"
     inkscape:pageopacity="0.0"
     inkscape:pagecheckerboard="0"
     inkscape:deskcolor="#d1d1d1"
     showgrid="true"
     inkscape:zoom="6.378882"
     inkscape:cx="80.5"
     inkscape:cy="80.656767"
     inkscape:window-width="1704"
     inkscape:window-height="1368"
     inkscape:window-x="1699"
     inkscape:window-y="0"
     inkscape:window-maximized="0"
     inkscape:current-layer="svg72977"><inkscape:grid
       type="xygrid"
       id="grid74932" /></sodipodi:namedview><path
     stroke="none"
     fill="#20be86"
     d="m 70,4.5621778 a 21,21 0 0 1 21,0 l 50.01408,28.8756442 a 21,21 0 0 1 10.5,18.186534 v 57.751284 a 21,21 0 0 1 -10.5,18.18654 L 91,156.43782 a 21,21 0 0 1 -21,0 L 19.985917,127.56218 A 21,21 0 0 1 9.4859169,109.37564 V 51.624356 A 21,21 0 0 1 19.985917,33.437822"
     id="path72975"
     clip-path="url(#clipPath74934)"
     inkscape:path-effect="#path-effect74938"
     inkscape:original-d="M70 4.5621778264911a21 21 0 0 1 21 0l50.014083110324 28.875644347018a21 21 0 0 1 10.5 18.186533479473l0 57.751288694036a21 21 0 0 1 -10.5 18.186533479473l-50.014083110324 28.875644347018a21 21 0 0 1 -21 0l-50.014083110324 -28.875644347018a21 21 0 0 1 -10.5 -18.186533479473l0 -57.751288694036a21 21 0 0 1 10.5 -18.186533479473"
     style="fill:#ffffff;fill-opacity:1" /></svg>
