<?xml version="1.0" encoding="UTF-8" standalone="no"?>
<svg
   id="svg"
   version="1.1"
   width="400"
   height="393"
   viewBox="0 0 400 393"
   sodipodi:docname="treefaded.svg"
   inkscape:version="1.2 (dc2aedaf03, 2022-05-15)"
   xmlns:inkscape="http://www.inkscape.org/namespaces/inkscape"
   xmlns:sodipodi="http://sodipodi.sourceforge.net/DTD/sodipodi-0.dtd"
   xmlns:xlink="http://www.w3.org/1999/xlink"
   xmlns="http://www.w3.org/2000/svg"
   xmlns:svg="http://www.w3.org/2000/svg">
  <defs
     id="defs65939">
    <linearGradient
       inkscape:collect="always"
       id="linearGradient70396">
      <stop
         style="stop-color:#ffffff;stop-opacity:0.03773585;"
         offset="0"
         id="stop70392" />
      <stop
         style="stop-color:#ffffff;stop-opacity:1;"
         offset="1"
         id="stop70394" />
    </linearGradient>
    <linearGradient
       inkscape:collect="always"
       id="linearGradient68046">
      <stop
         style="stop-color:#ffffff;stop-opacity:0.33333337;"
         offset="0"
         id="stop68042" />
      <stop
         style="stop-color:#ffffff;stop-opacity:1;"
         offset="1"
         id="stop68044" />
    </linearGradient>
    <radialGradient
       inkscape:collect="always"
       xlink:href="#linearGradient68046"
       id="radialGradient68060"
       cx="199.36407"
       cy="199.92874"
       fx="199.36407"
       fy="199.92874"
       r="193.33141"
       gradientTransform="matrix(1,0,0,0.97880111,0,4.2382675)"
       gradientUnits="userSpaceOnUse" />
    <radialGradient
       inkscape:collect="always"
       xlink:href="#linearGradient70396"
       id="radialGradient70398"
       cx="199.36408"
       cy="199.92874"
       fx="199.36408"
       fy="199.92874"
       r="193.3314"
       gradientTransform="matrix(1,0,0,0.97880111,0,4.2382675)"
       gradientUnits="userSpaceOnUse" />
  </defs>
  <sodipodi:namedview
     id="namedview65937"
     pagecolor="#ffffff"
     bordercolor="#000000"
     borderopacity="0.25"
     inkscape:showpageshadow="2"
     inkscape:pageopacity="0.0"
     inkscape:pagecheckerboard="0"
     inkscape:deskcolor="#d1d1d1"
     showgrid="false"
     inkscape:zoom="2.5675"
     inkscape:cx="191.82084"
     inkscape:cy="215.96884"
     inkscape:window-width="1704"
     inkscape:window-height="1368"
     inkscape:window-x="1699"
     inkscape:window-y="0"
     inkscape:window-maximized="0"
     inkscape:current-layer="svg" />
  <g
     id="svgg-9"
     style="fill:url(#radialGradient70398);fill-opacity:1;opacity:0.08"
     transform="matrix(0.99755446,0,0,0.99755446,0.65068036,-2.7522094)">
    <path
       id="path0-0"
       d="m 188.587,10.809 c -10.46,0.564 -10.956,0.672 -15.041,3.271 -4.16,2.648 -5.845,2.762 -11.466,0.777 -5.634,-1.988 -12.199,-1.844 -12.218,0.27 -0.005,0.519 -0.31,0.728 -1.4,0.96 -0.302,0.064 -1.275,0.719 -2.161,1.455 -2.11,1.754 -4.763,3.32 -7.706,4.546 -1.31,0.546 -3.967,1.692 -5.905,2.548 -5.377,2.375 -8.316,3.015 -10.329,2.25 -0.394,-0.15 -0.927,-0.108 -1.913,0.151 -1.331,0.349 -1.437,0.345 -3.979,-0.15 -4.055,-0.79 -5.245,-0.407 -10.038,3.228 -4.571,3.466 -6.947,4.336 -10.48,3.836 -0.96,-0.135 -1.84,-0.342 -1.957,-0.459 -0.441,-0.44 -1.289,-0.177 -2.974,0.924 -0.957,0.625 -2.604,1.65 -3.66,2.279 -2.276,1.356 -2.585,1.603 -4.262,3.408 -4.223,4.547 -6.226,6.163 -8.49,6.848 -2.27,0.687 -3.051,2.058 -4.418,7.753 -1.53,6.375 -2.689,7.876 -7.609,9.86 -3.517,1.418 -4.768,2.258 -4.768,3.201 0,1.24 -1.73,4.346 -3.191,5.728 -0.371,0.351 -0.861,1.058 -1.088,1.571 -1.507,3.408 -4.33,5.774 -7.408,6.21 -2.758,0.39 -3.245,0.772 -6.553,5.126 -2.973,3.913 -4.256,5.035 -6.362,5.561 -0.836,0.209 -1.128,0.414 -1.554,1.089 -0.289,0.457 -0.892,1.188 -1.34,1.624 -0.449,0.436 -0.889,1.033 -0.979,1.326 -0.867,2.84 -1.997,4.531 -3.997,5.985 -4.336,3.151 -4.883,4.668 -3.264,9.055 1.411,3.825 1.432,3.919 1.318,5.867 -0.28,4.745 -3.983,10.07 -7.639,10.987 -0.449,0.112 -0.657,0.392 -1.012,1.368 -0.565,1.548 -1.871,3.581 -3.015,4.691 -0.485,0.47 -1.134,1.362 -1.443,1.981 -0.308,0.619 -1.08,1.655 -1.715,2.303 -1.037,1.058 -1.203,1.359 -1.643,2.99 -0.268,0.997 -0.61,2.211 -0.76,2.697 -0.27,0.882 -0.265,0.897 1.255,3.861 3.078,6 4.012,10.397 3.124,14.698 -0.307,1.486 -0.305,1.631 0.019,1.869 0.5,0.365 0.504,3.286 0.008,5.955 -0.822,4.423 -0.218,6.234 3.378,10.134 3.361,3.644 3.414,3.879 1.467,6.46 -2.347,3.111 -2.457,3.659 -1.219,6.071 1.117,2.176 0.847,4.516 -0.753,6.515 l -0.614,0.767 0.388,2.54 c 0.213,1.396 0.458,3.297 0.545,4.223 0.127,1.362 0.279,1.866 0.797,2.633 1.164,1.726 1.699,3.689 1.817,6.67 0.097,2.464 0.149,2.732 0.687,3.52 0.741,1.088 1.361,2.328 1.707,3.413 0.149,0.47 0.929,1.749 1.732,2.844 3.198,4.358 3.142,11.212 -0.133,16.463 -2.513,4.029 -2.737,5.598 -0.96,6.72 1.039,0.655 1.371,1.287 1.684,3.2 0.591,3.619 0.413,3.362 4.663,6.716 1.538,1.214 1.055,2.186 -1.855,3.731 -3.974,2.111 -4.193,3.828 -1.158,9.097 2.206,3.829 2.761,5.926 1.894,7.163 -0.622,0.888 -0.196,2.413 0.782,2.797 0.877,0.344 0.752,0.898 -0.278,1.225 -0.238,0.076 -0.398,0.325 -0.398,0.622 0,0.272 -0.253,1.345 -0.561,2.385 -0.309,1.04 -0.608,2.106 -0.665,2.368 -0.083,0.383 0.401,1.002 2.439,3.124 3.266,3.399 4.001,4.675 4.027,6.994 0.016,1.521 0.065,1.69 0.694,2.406 0.856,0.975 1.318,1.886 2.143,4.227 1.215,3.448 2.164,5.065 2.971,5.065 0.523,0 2.952,1.184 4.09,1.993 0.532,0.379 1.483,0.901 2.111,1.159 3.88,1.595 6.411,4.937 7.165,9.461 0.118,0.714 0.197,0.785 1.018,0.916 2.299,0.368 5.054,1.981 8.009,4.689 1.948,1.785 2.479,2.099 5.279,3.115 3.758,1.365 4.862,2.281 5.322,4.418 0.137,0.637 0.094,0.707 -0.628,1.008 -0.937,0.391 -0.918,0.43 1.066,2.268 2.028,1.879 2.506,2.186 4.462,2.857 0.928,0.318 1.927,0.736 2.219,0.927 1.246,0.816 3.359,1.134 4.445,0.668 1.18,-0.506 1.236,-0.472 0.948,0.569 -0.122,0.444 -0.201,0.82 -0.175,0.834 0.026,0.015 0.636,0.482 1.355,1.037 l 1.308,1.011 4.452,0.19 c 4.722,0.202 5.471,0.334 7.332,1.293 3.362,1.733 6.062,5.415 6.686,9.118 0.211,1.255 0.352,1.562 0.954,2.068 0.399,0.335 1.111,1.401 1.637,2.448 0.558,1.112 1.253,2.136 1.734,2.559 l 0.803,0.705 1.957,-0.138 c 2.283,-0.16 3.342,0.1 6.949,1.707 5.221,2.327 7.534,2.769 9.844,1.883 0.297,-0.114 0.326,0.023 0.221,1.041 -0.37,3.591 3.344,6.14 14.655,10.058 2.288,0.792 4.832,1.754 5.654,2.138 0.821,0.384 2.05,0.958 2.73,1.276 0.68,0.318 1.646,0.89 2.145,1.271 1.451,1.107 7.419,1.648 9.265,0.839 3.111,-1.364 8.687,-0.354 11.464,2.076 l 1.245,1.089 3.109,-0.14 c 1.779,-0.08 3.792,-0.048 4.708,0.075 1.126,0.152 2.196,0.144 3.61,-0.027 1.598,-0.193 2.561,-0.182 4.694,0.057 4.475,0.5 5.452,0.354 10.363,-1.548 5.793,-2.245 8.211,-2.518 11.947,-1.349 3.189,0.997 7.465,0.752 11.493,-0.66 3.378,-1.184 10.512,-4.992 11.009,-5.877 0.691,-1.23 5.221,-4.6 5.914,-4.4 0.094,0.027 0.602,-0.227 1.13,-0.565 2.646,-1.697 5.011,-2.346 8,-2.194 1.958,0.099 2.213,0.066 3.094,-0.404 0.528,-0.282 1.416,-0.699 1.973,-0.928 0.826,-0.339 1.013,-0.514 1.013,-0.947 0,-3.014 3.18,-7.167 7.826,-10.221 2.089,-1.373 2.979,-2.106 3.75,-3.087 2.127,-2.708 6.2,-4.716 9.593,-4.732 0.438,-0.002 1.523,-0.248 2.412,-0.546 0.888,-0.299 2.244,-0.601 3.011,-0.673 1.172,-0.11 1.614,-0.276 2.748,-1.037 3.102,-2.08 6.751,-2.689 10.088,-1.685 1.837,0.553 2.419,0.008 5.929,-5.551 3.341,-5.292 5.016,-6.654 10.344,-8.412 4.013,-1.324 4.678,-1.793 6.532,-4.596 1.882,-2.847 1.907,-2.863 3.238,-2.115 1.36,0.764 1.883,0.484 2.45,-1.317 0.346,-1.096 0.666,-1.508 2.876,-3.706 3.057,-3.04 4.676,-5.372 6.755,-9.729 1.79,-3.752 2.613,-4.788 5.304,-6.678 2.957,-2.077 4.098,-3.288 5.145,-5.461 0.514,-1.066 2.24,-4.05 3.836,-6.631 1.621,-2.621 3.8,-6.531 4.935,-8.854 2.306,-4.718 3.734,-6.964 7.072,-11.125 3.789,-4.722 3.459,-3.715 2.612,-7.968 -1.895,-9.521 1.387,-17.795 9.351,-23.573 1.906,-1.384 1.911,-1.39 2.064,-2.512 0.43,-3.162 2.311,-5.389 8.6,-10.186 l 3.911,-2.982 1.18,-2.774 c 0.651,-1.531 1.253,-3.313 1.343,-3.978 0.09,-0.663 0.327,-1.632 0.526,-2.154 0.4,-1.047 0.471,-0.739 -1.266,-5.482 -0.504,-1.376 -0.55,-1.692 -0.346,-2.371 0.393,-1.312 0.275,-2.476 -0.414,-4.096 -1.305,-3.067 -1.273,-4.183 0.215,-7.585 0.735,-1.68 0.824,-2.087 0.95,-4.349 0.18,-3.219 0.497,-4.225 2.077,-6.586 1.798,-2.689 1.822,-2.535 -1.274,-8.361 -1.415,-2.663 -1.502,-3.761 -0.389,-4.94 0.394,-0.418 1.203,-1.553 1.798,-2.522 0.595,-0.969 1.377,-2.092 1.737,-2.494 0.788,-0.881 0.782,-0.666 0.112,-4.019 -0.299,-1.494 -0.617,-3.725 -0.708,-4.958 -0.258,-3.529 -1.328,-5.494 -4.353,-7.998 -2.715,-2.247 -3.284,-3.391 -3.006,-6.045 0.201,-1.927 -0.021,-2.649 -1.267,-4.121 -4.826,-5.701 -5.599,-7.105 -5.572,-10.109 l 0.017,-1.959 -1.901,-0.805 c -1.685,-0.713 -1.887,-0.857 -1.772,-1.257 1.592,-5.535 -1.863,-11.825 -10.938,-19.913 -9.781,-8.718 -12.595,-12.307 -13.035,-16.623 -0.328,-3.223 -0.962,-4.056 -4.428,-5.821 -4.625,-2.354 -11.588,-10.603 -11.588,-13.728 0,-0.485 -0.315,-0.968 -1.339,-2.054 -1.604,-1.7 -2.325,-2.879 -2.96,-4.842 -0.401,-1.241 -0.721,-1.733 -2.054,-3.161 -0.868,-0.931 -2.015,-2.443 -2.548,-3.36 -0.533,-0.918 -1.107,-1.669 -1.274,-1.669 -0.687,0 -2.761,-1.24 -4.266,-2.55 -4.399,-3.831 -4.564,-3.907 -9.387,-4.376 -1.954,-0.189 -3.955,-0.514 -4.758,-0.771 -2.589,-0.829 -4.01,-0.345 -6.931,2.362 -2.821,2.613 -3.856,2.944 -5.748,1.835 -1.148,-0.673 -1.173,-0.873 -0.328,-2.574 0.774,-1.557 0.787,-2.067 0.091,-3.465 -1.735,-3.481 -4.581,-5.169 -14.178,-8.409 -8.664,-2.925 -11.526,-4.493 -12.684,-6.95 -1.148,-2.437 -1.63,-2.682 -5.572,-2.829 l -3.002,-0.113 -1.658,-1.12 c -1.925,-1.301 -1.596,-1.241 -3.687,-0.668 -1.502,0.413 -2.873,0.509 -4.97,0.351 l -0.747,-0.056 -0.106,1.28 -0.107,1.28 -1.05,0.52 c -2.657,1.317 -5.481,0.846 -11.11,-1.851 -5.188,-2.485 -5.267,-2.569 -3.687,-3.929 l 0.906,-0.779 -0.273,-1.023 c -0.588,-2.199 -2.29,-3.834 -6.789,-6.526 -3.875,-2.317 -4.229,-2.396 -9.989,-2.213 -5.648,0.18 -6.926,0.025 -13.706,-1.667 -4.299,-1.073 -7.913,-1.684 -9.387,-1.586 -0.327,0.022 -1.123,0.068 -1.768,0.103 m -5.189,19.928 c 3.532,0.488 8.025,1.83 13.763,4.114 9.172,3.649 12.884,4.562 23.106,5.682 13.775,1.509 16.282,2.545 25.813,10.665 11.473,9.776 12.494,10.075 27.307,8.009 24.256,-3.383 40.712,5.835 54.829,30.713 4.215,7.429 5.715,9.386 14.059,18.344 9.854,10.581 14.161,17.336 21.802,34.194 9.898,21.836 11.74,28.495 13.027,47.089 1.081,15.598 0.401,18.654 -5.812,26.133 -4.291,5.165 -5.125,6.589 -7.124,12.16 -2.294,6.393 -3.98,9.115 -8.123,13.12 -1.335,1.291 -3.57,3.451 -4.965,4.8 -8.024,7.76 -12.124,16.425 -14.336,30.293 -1.594,9.991 -2.788,13.705 -6.147,19.126 -5.627,9.08 -12.915,15.15 -32.997,27.488 -9.391,5.769 -11.998,7.518 -18.453,12.379 -10.599,7.982 -12.797,9.417 -20.587,13.438 -5.26,2.715 -6.617,3.474 -16.747,9.374 -2.581,1.504 -7.237,4.049 -10.346,5.656 -3.11,1.608 -7.05,3.746 -8.758,4.751 -11.088,6.531 -16.458,7.769 -24.97,5.757 -5.194,-1.228 -7.602,-1.42 -16.512,-1.315 -18.668,0.22 -21.479,0.038 -26.987,-1.742 -6.476,-2.093 -12.136,-5.844 -20.965,-13.896 -14.576,-13.292 -28.45,-22.866 -45.062,-31.094 -8.27,-4.097 -11.506,-5.877 -15.68,-8.627 -3.085,-2.034 -5.229,-3.295 -10.56,-6.211 -14.388,-7.871 -17.936,-12.919 -18.661,-26.55 -0.376,-7.072 -0.589,-8.156 -2.699,-13.708 -3.069,-8.077 -3.144,-10.01 -0.679,-17.652 3.351,-10.394 3.139,-13.459 -1.644,-23.787 -3.439,-7.426 -4.075,-10.067 -5.315,-22.083 -0.912,-8.828 -1.206,-10.208 -4.159,-19.517 -4.663,-14.695 -6.748,-28.492 -5.453,-36.079 2.893,-16.942 22.258,-45.937 50.535,-75.665 13.915,-14.629 29.204,-25.558 45.085,-32.227 19.918,-8.365 51.826,-14.87 64.415,-13.132 m -8.145,3.326 c -11.99,0.739 -31.414,4.888 -45.714,9.764 -25.626,8.736 -44.096,22.941 -69.502,53.453 -21.382,25.679 -33.37,47.288 -33.37,60.15 0,9.157 1.968,19.427 6.297,32.863 2.241,6.956 2.533,8.511 3.833,20.43 0.928,8.503 1.799,11.829 4.732,18.063 4.657,9.903 4.897,12.917 1.8,22.554 -2.59,8.058 -2.542,9.79 0.49,17.867 2.17,5.781 2.262,6.255 2.697,13.941 0.764,13.495 4.139,17.979 20.226,26.873 2.775,1.534 6.629,3.821 8.565,5.082 4.656,3.033 6.948,4.297 14.826,8.181 15.76,7.768 30.277,17.673 43.251,29.509 9.767,8.911 14.846,12.36 21.441,14.562 5.266,1.759 7.76,1.962 23.08,1.883 13.814,-0.071 14.362,-0.035 20.495,1.371 8.129,1.862 12.918,0.656 25.003,-6.3 2.781,-1.6 6.688,-3.726 8.681,-4.724 1.993,-0.998 5.526,-2.91 7.85,-4.249 2.324,-1.339 6.338,-3.654 8.919,-5.145 2.582,-1.49 6.404,-3.569 8.494,-4.618 6.963,-3.497 9.95,-5.44 20.093,-13.072 6.268,-4.715 9.58,-6.934 18.667,-12.506 27.003,-16.556 35.074,-25.796 37.546,-42.982 2.27,-15.786 6.275,-24.468 15.053,-32.632 8.185,-7.611 9.112,-8.917 12.137,-17.109 1.734,-4.698 2.675,-6.392 5.39,-9.712 8.299,-10.149 8.533,-11.29 6.767,-33.004 -1.066,-13.112 -3.166,-20.299 -11.215,-38.38 C 353.467,127.492 349.4,120.997 339.136,110.005 331.22,101.528 329.716,99.516 324.694,90.674 312.64,69.45 294.555,58.878 274.88,61.554 c -18.33,2.493 -17.983,2.576 -29.227,-6.952 -7.037,-5.963 -7.917,-6.582 -11.015,-7.741 -4.021,-1.505 -7.093,-2.134 -14.798,-3.03 -10.243,-1.19 -14.823,-2.327 -22.72,-5.641 -8.17,-3.428 -14.335,-4.592 -21.867,-4.127 m 11.318,1.633 c 3.38,0.781 6.001,1.656 11.008,3.675 8.284,3.341 11.433,4.099 22.474,5.415 6.785,0.808 9.313,1.297 12.981,2.512 4.111,1.361 4.351,1.526 14.133,9.736 9.039,7.585 10.331,7.898 24.3,5.874 23.553,-3.411 39.9,5.883 53.777,30.575 3.591,6.389 5.49,8.84 13.522,17.452 9.4,10.078 13.182,15.974 20.595,32.105 9.872,21.481 12.057,29.267 13.11,46.72 0.12,1.995 0.319,5.115 0.443,6.933 0.574,8.469 -0.732,12.275 -6.625,19.307 -3.515,4.195 -4.596,6.116 -6.598,11.733 -2.436,6.833 -3.859,8.798 -11.492,15.879 -8.58,7.957 -12.662,16.223 -14.967,30.308 -0.355,2.171 -0.789,4.775 -0.965,5.788 -1.502,8.661 -6.618,17.146 -14.529,24.094 -5.64,4.954 -9.682,7.753 -23.231,16.086 -8.555,5.261 -10.851,6.809 -17.707,11.934 -10.467,7.823 -12.663,9.256 -19.417,12.666 -3.578,1.807 -6.682,3.548 -17.17,9.634 -2.288,1.328 -6.224,3.475 -8.746,4.77 -2.523,1.296 -6.843,3.651 -9.6,5.233 -10.872,6.24 -15.728,7.377 -23.574,5.522 -5.545,-1.311 -5.785,-1.326 -21.013,-1.334 -12.091,-0.007 -14.268,-0.056 -16.162,-0.368 -8.891,-1.465 -15.53,-5.242 -25.971,-14.775 -14.163,-12.93 -27.472,-22.148 -43.512,-30.138 -8.786,-4.376 -11.553,-5.899 -15.825,-8.708 -1.743,-1.147 -4.994,-3.09 -7.223,-4.316 -17.63,-9.703 -20.428,-13.418 -21.23,-28.195 -0.29,-5.337 -0.617,-7.227 -1.834,-10.593 -3.92,-10.842 -3.961,-11.499 -1.247,-19.913 1.644,-5.099 1.808,-5.817 1.945,-8.534 0.212,-4.178 -0.606,-7.368 -3.452,-13.464 -3.514,-7.528 -4.203,-10.185 -5.222,-20.136 -1.009,-9.849 -1.412,-11.915 -3.764,-19.306 -5.712,-17.952 -7.402,-30.412 -5.31,-39.147 4.239,-17.702 28.071,-51.536 54.008,-76.675 9.465,-9.175 21.195,-17.593 31.972,-22.947 21.424,-10.642 58.472,-18.554 72.118,-15.402 m -10.038,3.265 c -6.99,0.355 -18.004,2.187 -27.975,4.653 -25.486,6.301 -39,12.972 -57.785,28.521 C 88.001,74.43 79.423,83.032 74.633,88.321 53.32,111.85 38.665,133.389 33.7,148.48 c -3.439,10.45 -2.222,22.365 4.378,42.88 1.672,5.195 2.289,8.101 2.877,13.547 1.548,14.322 1.987,16.24 5.348,23.39 4.301,9.15 4.581,12.397 1.814,21.015 -2.528,7.875 -2.604,9.677 -0.643,15.275 3.272,9.339 3.122,8.67 3.516,15.715 0.775,13.845 3.891,17.921 20.797,27.21 1.877,1.032 4.853,2.812 6.613,3.956 4.623,3.004 6.589,4.092 14.929,8.262 16.424,8.212 29.106,16.943 43.257,29.779 14.662,13.3 19.439,15.059 40.161,14.784 13.126,-0.174 15.245,-0.026 22.613,1.583 6.853,1.496 12.09,0.187 21.867,-5.465 2.17,-1.255 6.394,-3.55 9.386,-5.1 2.992,-1.551 8.608,-4.672 12.48,-6.935 3.872,-2.264 9.392,-5.333 12.267,-6.82 7.904,-4.087 9.744,-5.278 19.413,-12.559 6.078,-4.577 10.116,-7.286 18.667,-12.523 26.225,-16.064 33.874,-24.9 36.374,-42.021 1.635,-11.193 4.189,-18.449 8.784,-24.959 1.329,-1.883 4,-4.681 9.47,-9.921 4.242,-4.063 5.663,-6.34 7.988,-12.8 1.597,-4.434 2.641,-6.331 5.285,-9.596 7.484,-9.242 8.042,-11.118 7.189,-24.176 -1.334,-20.448 -2.834,-26.153 -12.44,-47.324 -7.648,-16.854 -11.138,-22.304 -21.293,-33.25 -7.519,-8.106 -8.923,-9.974 -13.305,-17.707 -12.887,-22.74 -29.656,-31.933 -52.159,-28.594 -13.638,2.023 -14.408,1.787 -25.913,-7.966 -8.52,-7.222 -10.79,-8.122 -24.54,-9.731 -10.071,-1.179 -13.227,-1.996 -22.977,-5.947 -6.819,-2.764 -12.818,-3.855 -19.37,-3.521 m 10.454,1.664 c 3.619,0.836 5.333,1.406 10.684,3.554 7.619,3.057 11.556,4.033 20.605,5.105 14.368,1.703 16.112,2.404 25.244,10.141 11.363,9.629 11.411,9.642 27.093,7.463 21.646,-3.008 37.746,6.321 50.701,29.377 3.745,6.664 5.399,8.791 14.241,18.308 8.226,8.854 12.066,14.898 18.898,29.747 9.267,20.139 11.665,28.086 12.681,42.027 1.436,19.696 1.231,20.772 -5.534,29.013 -3.874,4.72 -4.395,5.635 -6.542,11.487 -2.542,6.929 -3.736,8.596 -11.024,15.381 -9.36,8.716 -12.551,15.765 -15.504,34.252 -2.369,14.832 -10.748,24.036 -35.837,39.367 -8.654,5.288 -11.784,7.396 -18.968,12.774 -9.137,6.839 -11.765,8.553 -17.564,11.458 -3.872,1.94 -7.275,3.832 -14.348,7.977 -3.168,1.857 -8.112,4.589 -10.986,6.072 -2.875,1.482 -7.195,3.836 -9.6,5.229 -10.637,6.164 -15.06,7.157 -23.467,5.268 -5.238,-1.177 -5.895,-1.217 -18.667,-1.15 -7.208,0.038 -12.761,-0.028 -14.4,-0.17 -9.598,-0.833 -16.559,-4.48 -27.335,-14.318 -13.856,-12.651 -27.447,-22.078 -42.558,-29.519 -7.817,-3.85 -10.991,-5.595 -15.333,-8.43 -1.76,-1.149 -5.637,-3.446 -8.615,-5.104 -15.565,-8.666 -18.232,-12.408 -19.011,-26.681 -0.328,-6.018 -0.585,-7.226 -2.677,-12.59 -2.768,-7.101 -2.792,-9.084 -0.205,-17.058 2.797,-8.627 2.548,-12.237 -1.437,-20.805 -3.521,-7.571 -4.249,-10.413 -5.276,-20.587 -0.891,-8.823 -1.34,-11.132 -3.413,-17.556 -5.692,-17.642 -7.364,-29.98 -5.243,-38.693 3.777,-15.514 20.823,-40.714 45.171,-66.782 9.755,-10.443 19.129,-18.317 29.612,-24.873 15.86,-9.917 41.667,-17.87 65.814,-20.281 3.155,-0.315 10.292,0.018 12.8,0.597 m -13.654,3.548 c -13.465,1.35 -33.01,6.164 -46.08,11.349 -12.656,5.022 -25.957,13.656 -36.997,24.017 -16.855,15.818 -37.581,42.194 -46.797,59.554 -8.475,15.966 -8.648,27.19 -0.793,51.632 2.19,6.815 2.55,8.608 3.406,16.955 1.056,10.293 1.789,13.285 4.866,19.849 4.217,8.999 4.46,12.039 1.653,20.661 -2.349,7.217 -2.397,9.773 -0.283,15.277 2.579,6.713 2.808,7.74 3.161,14.186 0.732,13.366 3.987,17.83 18.984,26.034 2.523,1.38 6.171,3.534 8.107,4.787 4.619,2.988 5.944,3.718 15.04,8.279 14.921,7.482 27.513,16.164 40.279,27.773 14.148,12.865 19.639,15.129 36.201,14.925 15.327,-0.189 18.632,-0.022 23.798,1.203 8.048,1.909 12.634,0.81 24.095,-5.769 2.699,-1.55 6.481,-3.606 8.404,-4.57 3.852,-1.93 4.427,-2.25 12.61,-7.029 3.109,-1.816 8.005,-4.518 10.88,-6.004 7.539,-3.898 9.348,-5.075 19.3,-12.562 5.774,-4.344 8.74,-6.33 17.073,-11.431 19.804,-12.124 27.354,-18.888 32.124,-28.783 2.05,-4.252 2.62,-6.358 3.935,-14.533 2.173,-13.502 5.81,-20.66 14.736,-29 6.475,-6.049 7.934,-8.137 10.222,-14.626 1.756,-4.978 2.557,-6.403 5.878,-10.454 3.12,-3.804 3.341,-4.11 4.348,-6.007 1.803,-3.396 2.12,-4.918 2.127,-10.206 0.013,-10.576 -1.267,-21.996 -3.312,-29.547 -2.892,-10.678 -13.366,-33.623 -19.745,-43.255 -2.182,-3.294 -4.398,-5.916 -11.146,-13.184 -5.515,-5.94 -7.755,-8.949 -11.106,-14.921 -12.786,-22.782 -29.111,-31.855 -51.314,-28.515 -13.074,1.966 -13.554,1.819 -24.64,-7.547 -8.583,-7.251 -10.502,-8.024 -23.869,-9.604 -9.199,-1.088 -13.875,-2.254 -21.145,-5.273 -8.349,-3.467 -15.32,-4.531 -24,-3.661 m 11.627,0.937 c 3.525,0.534 6.994,1.567 12.16,3.62 8.707,3.46 11.749,4.209 21.76,5.355 12.6,1.443 14.581,2.273 23.467,9.821 10.339,8.784 11.423,9.127 23.573,7.454 7.942,-1.094 9.968,-1.185 14.4,-0.651 15.776,1.903 26.969,10.537 37.347,28.811 3.403,5.992 5.209,8.423 10.585,14.243 5.668,6.136 6.687,7.275 8.398,9.385 5.165,6.37 10.823,17.037 17.906,33.759 5.507,12.998 6.787,18.744 7.916,35.52 0.906,13.448 0.467,14.936 -7.161,24.299 -2.132,2.617 -3.282,4.766 -4.806,8.981 -2.593,7.168 -3.503,8.457 -10.827,15.329 -8.33,7.817 -12.086,15.314 -14.232,28.404 -1.422,8.674 -1.999,10.841 -3.956,14.831 -4.722,9.632 -12.206,16.253 -32.317,28.592 -8.195,5.028 -10.606,6.658 -17.792,12.028 -8.679,6.486 -11.399,8.262 -16.744,10.934 -3.933,1.966 -6.526,3.399 -13.25,7.325 -6.621,3.865 -9.282,5.336 -13.12,7.251 -1.584,0.791 -4.752,2.518 -7.04,3.839 -10.891,6.286 -15.24,7.346 -22.848,5.569 -5.489,-1.283 -5.865,-1.308 -18.821,-1.243 -14.673,0.072 -16.811,-0.101 -21.828,-1.767 -5.339,-1.773 -10.933,-5.403 -17.447,-11.321 -8.606,-7.819 -13.573,-11.802 -21.776,-17.463 -8.43,-5.816 -11.453,-7.6 -20.48,-12.081 -8.161,-4.052 -10.501,-5.338 -14.72,-8.093 -1.76,-1.15 -5.382,-3.297 -8.048,-4.772 -14.769,-8.171 -18.012,-12.258 -18.725,-23.602 -0.523,-8.333 -0.73,-9.432 -2.769,-14.707 -2.686,-6.949 -2.713,-8.868 -0.236,-16.51 2.831,-8.735 2.545,-11.983 -1.884,-21.412 -2.813,-5.991 -3.616,-9.269 -4.61,-18.838 -0.913,-8.797 -1.313,-10.852 -3.286,-16.913 -5.74,-17.629 -7.245,-29.738 -4.806,-38.67 3.506,-12.841 15.613,-31.753 33.995,-53.102 27.604,-32.062 47.268,-43.978 85.522,-51.827 6.431,-1.32 10.491,-1.924 17.113,-2.549 2.152,-0.203 7.57,-0.105 9.387,0.171 m -9.28,3.827 c -2.65,0.441 -5.515,1.271 -9.536,2.763 -6.897,2.56 -9.029,2.975 -19.918,3.876 -7.701,0.638 -10.473,0.998 -13.262,1.722 -13.075,3.397 -35.619,20.552 -53.56,40.755 -1.888,2.127 -5.479,5.967 -7.98,8.534 -11.919,12.234 -14.709,15.786 -19.787,25.183 -8.112,15.009 -10.538,28.709 -7.885,44.512 0.905,5.389 2.105,9.123 5.917,18.405 4.274,10.409 7.602,21.179 9.616,31.126 2.816,13.906 2.914,25.256 0.338,39.282 -2.156,11.742 -1.603,15.891 2.864,21.462 5.458,6.808 12.818,11.428 28.286,17.757 13.48,5.516 20.699,9.971 38.72,23.896 17.445,13.48 21.839,15.858 36.267,19.63 4.814,1.259 6.282,1.723 14.827,4.689 19.689,6.834 28.738,5.17 49,-9.013 8.753,-6.128 15.818,-10.609 27.48,-17.43 12.089,-7.072 18.704,-11.285 24.96,-15.896 1.701,-1.255 5.397,-3.895 8.213,-5.868 21.063,-14.757 25.324,-21.001 32.248,-47.255 3.821,-14.49 6.731,-19.09 21.728,-34.347 15.536,-15.805 17.158,-21.905 11.553,-43.437 -4.602,-17.676 -4.404,-17.163 -8.993,-23.333 -3.943,-5.301 -4.267,-5.882 -6.724,-12.057 -2.224,-5.589 -3.554,-7.736 -7.382,-11.908 -6.195,-6.754 -6.585,-7.27 -10.113,-13.372 -1.323,-2.288 -2.869,-4.848 -3.436,-5.689 -1.542,-2.288 -3.654,-6.15 -6.771,-12.383 -6.712,-13.42 -10.485,-17.67 -18.483,-20.826 -7.051,-2.782 -14.398,-3.572 -31.254,-3.362 -13.108,0.164 -16.344,-0.985 -20.69,-7.349 -4.226,-6.188 -6.643,-7.328 -15.576,-7.344 -10.212,-0.02 -18.642,-2.288 -30.476,-8.201 -8.647,-4.321 -14.084,-5.539 -20.191,-4.522 m 8.853,1.118 c 2.938,0.604 5.417,1.544 9.82,3.721 13.271,6.564 21.09,8.719 32.1,8.849 8.871,0.105 10.585,0.903 14.647,6.815 2.263,3.293 3.644,4.611 6.029,5.754 4.067,1.948 5.584,2.114 19.538,2.131 15.759,0.02 21.795,0.856 28.486,3.946 6.99,3.228 10.246,7.282 17.485,21.769 2.992,5.989 3.67,7.215 6.075,10.987 0.897,1.408 2.341,3.808 3.207,5.333 3.047,5.364 4.204,6.924 8.623,11.627 5.032,5.356 6.223,7.196 8.766,13.545 2.197,5.483 3.133,7.175 6.347,11.472 4.725,6.316 4.533,5.876 7.634,17.498 7.323,27.448 6.37,32.401 -9.265,48.151 -15.503,15.616 -18.423,20.21 -22.448,35.307 -6.945,26.054 -10.935,31.881 -31.977,46.699 -3.285,2.314 -7.557,5.356 -9.493,6.761 -6.052,4.39 -12.115,8.194 -26.667,16.728 -9.139,5.361 -16.761,10.245 -25.132,16.106 -11.972,8.382 -19.965,11.812 -28.638,12.286 -5.453,0.299 -9.646,-0.675 -23.402,-5.433 -3.079,-1.065 -7.303,-2.374 -9.387,-2.908 -14.738,-3.779 -19.238,-6.167 -36.075,-19.144 C 111.979,313.544 104.087,308.636 91.462,303.585 78.1,298.24 71.46,294.403 65.795,288.757 c -6.45,-6.431 -7.596,-11.007 -5.53,-22.09 0.427,-2.288 0.912,-4.92 1.078,-5.848 3.256,-18.17 -0.591,-41.554 -11.014,-66.936 -5.397,-13.145 -6.462,-17.941 -6.479,-29.19 -0.022,-13.986 3.36,-24.651 12.295,-38.783 3.291,-5.204 6.55,-9.061 14.999,-17.75 3.024,-3.109 7.045,-7.38 8.937,-9.489 12.477,-13.917 22.786,-23.039 35.972,-31.829 11.732,-7.821 15.705,-9.193 29.867,-10.311 11.012,-0.87 14.151,-1.486 20.977,-4.122 6.972,-2.693 12.442,-3.422 17.636,-2.354 m -8.106,6.579 c -2.349,0.398 -5.489,1.295 -8.212,2.347 -6.604,2.553 -9.341,3.098 -19.842,3.95 -6.559,0.532 -9.934,0.955 -12.16,1.522 -12.959,3.302 -33.9,19.128 -51.626,39.014 -1.408,1.58 -5.162,5.562 -8.342,8.849 -11.665,12.06 -14.643,16.006 -19.701,26.114 -9.452,18.886 -9.785,35.233 -1.145,56.311 11.211,27.351 14.133,47.237 10.095,68.72 -2.178,11.59 -1.437,15.838 3.819,21.911 4.882,5.641 12.334,10.15 25.834,15.632 13.746,5.583 19.364,9.129 41.6,26.259 11.887,9.158 17.858,12.197 30.4,15.472 2.464,0.644 6.448,1.849 8.853,2.678 13.978,4.82 17.023,5.583 22.293,5.585 9.052,0.003 17.156,-3.308 29.793,-12.173 8.369,-5.87 14.911,-10.016 26.894,-17.041 11.872,-6.961 17.336,-10.436 23.42,-14.895 1.584,-1.161 5.136,-3.694 7.893,-5.629 20.554,-14.422 24.32,-19.923 31.163,-45.508 3.686,-13.782 6.551,-18.343 20.117,-32.031 15.566,-15.704 17.178,-21.496 11.773,-42.281 -4.385,-16.859 -4.323,-16.701 -8.841,-22.691 -3.4,-4.508 -4.067,-5.698 -6.111,-10.909 -2.332,-5.945 -3.741,-8.128 -8.538,-13.227 -4.165,-4.426 -5.395,-6.095 -8.415,-11.413 -0.866,-1.525 -2.183,-3.712 -2.926,-4.859 -2.123,-3.277 -3.284,-5.379 -6.492,-11.755 -3.16,-6.281 -5.027,-9.585 -6.703,-11.866 -6.603,-8.982 -16.542,-12.175 -36.906,-11.859 -16.881,0.263 -19.544,-0.531 -24.312,-7.247 -4.181,-5.888 -5.947,-6.724 -14.395,-6.814 -10.482,-0.111 -17.342,-1.94 -29.654,-7.909 -8.877,-4.303 -13.468,-5.298 -19.626,-4.257 m 9.386,1.157 c 2.786,0.635 4.597,1.36 9.92,3.975 11.865,5.827 18.877,7.693 29.974,7.978 8.646,0.222 9.733,0.75 13.869,6.739 4.482,6.491 7.87,7.53 23.677,7.261 16.694,-0.285 25.717,1.513 32.325,6.441 4.151,3.095 6.195,6.082 12.149,17.762 2.123,4.165 4.636,8.773 5.583,10.24 0.948,1.466 2.519,4.058 3.493,5.76 3.014,5.269 4.054,6.67 8.315,11.2 4.826,5.13 5.861,6.718 8.246,12.642 2.119,5.263 3.123,7.13 5.671,10.542 5.102,6.834 4.988,6.592 7.43,15.749 7.74,29.018 7.069,32.134 -10.862,50.416 -12.598,12.845 -15.473,17.531 -19.039,31.027 -6.608,25.009 -10.671,30.972 -30.484,44.741 -2.171,1.509 -5.387,3.805 -7.147,5.104 -6.728,4.964 -11.433,7.937 -28.906,18.265 -8.732,5.161 -15.07,9.239 -23.254,14.964 -12.328,8.624 -20.467,11.771 -29.546,11.423 -4.752,-0.181 -7.17,-0.785 -18.134,-4.529 -3.989,-1.362 -8.741,-2.86 -10.56,-3.327 -14.688,-3.779 -18.4,-5.765 -35.84,-19.18 -16.982,-13.063 -24.453,-17.693 -36.111,-22.378 -13.224,-5.315 -20.061,-9.237 -25.338,-14.534 -6.137,-6.159 -7.067,-10.549 -4.809,-22.712 3.963,-21.352 1.052,-41.484 -9.855,-68.16 -8.235,-20.142 -8.596,-34.737 -1.284,-51.947 4.619,-10.871 9.348,-17.631 20.116,-28.758 5.634,-5.821 7.847,-8.184 11.838,-12.641 15.455,-17.257 36.723,-33.149 48.643,-36.347 2.551,-0.685 5.211,-1.037 12.16,-1.613 11.379,-0.942 12.998,-1.276 21.617,-4.459 5.969,-2.204 11.303,-2.747 16.143,-1.644 m -6.826,5.93 c -2.595,0.278 -6.197,1.27 -10.419,2.87 -5.197,1.968 -8.124,2.528 -17.208,3.29 -13.167,1.105 -15.761,1.846 -24.32,6.948 -12.593,7.506 -25.066,18.194 -37.531,32.162 -1.4,1.568 -4.76,5.121 -7.467,7.896 -10.92,11.191 -14.067,15.339 -18.779,24.75 -5.25,10.484 -7.175,18.694 -6.879,29.333 0.258,9.266 1.431,14.09 6.275,25.813 9.77,23.647 12.76,44.103 9.222,63.1 -2.147,11.527 -1.648,15.392 2.686,20.809 4.818,6.021 11.861,10.353 26.34,16.198 11.564,4.668 18.5,9.013 36.373,22.782 13.904,10.711 18.776,13.272 31.656,16.643 2.418,0.633 6.797,1.983 9.731,3 11.03,3.827 13.937,4.554 18.88,4.726 8.944,0.309 16.751,-2.762 29.28,-11.52 7.748,-5.416 14.742,-9.847 24.877,-15.762 11.736,-6.849 17.119,-10.256 23.103,-14.619 1.917,-1.398 5.598,-4.015 8.18,-5.814 18.822,-13.122 22.752,-18.93 29.142,-43.07 2.507,-9.471 4.545,-13.675 9.839,-20.296 1.992,-2.491 8.218,-9.182 9.355,-10.053 0.402,-0.308 2.101,-2.038 3.777,-3.844 10.989,-11.848 12.14,-17.77 7.191,-36.983 -4.05,-15.717 -3.823,-15.15 -8.48,-21.271 -2.735,-3.596 -3.613,-5.151 -5.316,-9.408 -2.792,-6.979 -3.246,-7.667 -9.627,-14.589 -2.847,-3.088 -4.221,-5.008 -6.764,-9.452 -0.973,-1.701 -2.221,-3.765 -2.773,-4.587 -1.649,-2.455 -3.311,-5.456 -6.019,-10.872 -9.906,-19.808 -15.985,-23.154 -41.758,-22.986 -16.54,0.109 -18.79,-0.557 -23.247,-6.882 -3.864,-5.483 -5.996,-6.499 -13.667,-6.513 -9.584,-0.019 -17.28,-2.068 -28.506,-7.59 -7.531,-3.705 -11.879,-4.772 -17.147,-4.209 m 6.933,1.26 c 2.694,0.536 5.058,1.435 9.387,3.571 6.574,3.245 11.138,5.013 16.32,6.321 4.518,1.142 5.978,1.321 12.16,1.497 8.688,0.247 9.91,0.778 13.508,5.87 4.9,6.934 7.119,7.645 23.541,7.549 13.377,-0.078 19.65,0.758 25.722,3.429 6.413,2.821 9.629,6.575 15.23,17.774 2.977,5.955 4.687,9.072 6.688,12.199 0.904,1.413 2.421,3.913 3.37,5.556 2.441,4.225 3.401,5.51 7.089,9.493 5.197,5.611 6.197,7.132 8.42,12.8 1.674,4.268 2.998,6.712 5.259,9.707 3.903,5.168 4.795,6.701 5.617,9.649 9.194,32.972 8.728,35.693 -9.167,53.541 -11.631,11.602 -14.539,16.513 -18.348,30.987 -5.767,21.918 -10.07,28.033 -28.903,41.076 -2.17,1.503 -5.05,3.552 -6.4,4.552 -6.023,4.465 -11.768,8.136 -23.253,14.86 -11.81,6.913 -15.084,8.998 -29.315,18.663 -14.862,10.093 -23.516,11.338 -39.838,5.732 -8.39,-2.881 -9.767,-3.318 -13.3,-4.226 -13.477,-3.461 -17.406,-5.544 -32.896,-17.438 -17.599,-13.514 -24.272,-17.607 -36.971,-22.674 -20.202,-8.062 -28.886,-16.312 -28.296,-26.881 0.131,-2.348 0.271,-3.269 1.492,-9.815 3.348,-17.94 0.129,-38.955 -9.558,-62.4 -8.443,-20.433 -8.493,-35.154 -0.179,-52.8 4.436,-9.416 8.429,-14.805 19.046,-25.706 2.857,-2.934 6.877,-7.206 8.934,-9.494 11.703,-13.02 24.789,-24.069 36.989,-31.231 7.42,-4.356 11.089,-5.369 22.879,-6.316 10.005,-0.804 12.416,-1.301 19.565,-4.036 5.548,-2.123 10.606,-2.724 15.208,-1.809 m -5.813,5.675 c -2.633,0.206 -5.511,0.959 -9.935,2.601 -5.487,2.036 -8.373,2.604 -16.359,3.221 -12.496,0.966 -15.942,2.008 -24.665,7.457 -11.32,7.07 -23.067,17.266 -33.935,29.452 -1.883,2.112 -5.704,6.192 -8.49,9.066 -9.198,9.491 -12.253,13.572 -16.57,22.134 -8.857,17.571 -9.102,32.491 -0.862,52.533 9.748,23.709 12.344,42.179 8.669,61.661 -1.981,10.502 -0.914,15.157 4.782,20.853 4.894,4.894 11.001,8.407 23.084,13.279 11.155,4.498 17.107,8.302 36.894,23.577 10.728,8.282 16.082,10.977 27.947,14.068 2.053,0.535 5.413,1.557 7.466,2.271 12.691,4.413 14.876,4.95 20.16,4.953 8.747,0.005 15.07,-2.706 29.014,-12.443 4.936,-3.446 10.749,-7.167 17.189,-11.002 3.1,-1.846 7.893,-4.701 10.651,-6.344 6.289,-3.747 11.192,-6.96 16.229,-10.636 2.162,-1.578 5.563,-4.009 7.557,-5.402 16.825,-11.754 21.203,-18.15 26.66,-38.951 3.598,-13.718 5.974,-17.683 17.825,-29.751 16.329,-16.625 16.805,-19.208 8.957,-48.64 -1.358,-5.093 -2.035,-6.472 -5.402,-11.006 -2.929,-3.945 -4.016,-5.901 -5.798,-10.434 -2.085,-5.303 -3.131,-6.884 -7.974,-12.053 -3.05,-3.256 -4.515,-5.249 -6.879,-9.359 -0.954,-1.658 -2.417,-4.07 -3.251,-5.361 -0.834,-1.291 -3.108,-5.467 -5.053,-9.28 -5.061,-9.921 -6.314,-11.879 -9.644,-15.072 -5.828,-5.589 -14.738,-7.753 -30.667,-7.45 -14.693,0.28 -17.521,-0.554 -21.525,-6.353 -3.638,-5.267 -5.734,-6.325 -12.536,-6.325 -9.485,0 -17.279,-2.089 -28.211,-7.563 -6.501,-3.254 -10.053,-4.112 -15.328,-3.701 m 5.845,1.13 c 2.784,0.533 4.88,1.327 9.568,3.624 11.036,5.409 18.279,7.363 27.283,7.363 7.22,0 9.04,0.852 12.487,5.842 4.299,6.226 6.144,6.821 21.243,6.854 14.55,0.031 20.485,0.896 26.347,3.84 5.583,2.804 8.243,6.143 13.896,17.444 2.918,5.834 3.899,7.621 5.942,10.82 0.787,1.232 2.174,3.548 3.082,5.146 2.031,3.574 3.638,5.725 6.753,9.041 4.662,4.963 5.62,6.427 7.899,12.071 2.175,5.385 2.592,6.112 6.471,11.289 2.606,3.478 3.291,4.996 4.812,10.667 7.479,27.878 6.966,30.584 -8.855,46.717 -11.604,11.832 -14.571,16.542 -17.5,27.773 -6.15,23.587 -9.568,28.676 -27.94,41.595 -2.581,1.815 -5.959,4.229 -7.506,5.365 -4.229,3.104 -9.289,6.383 -16.281,10.549 -17.491,10.422 -20.447,12.278 -28.557,17.935 -12.095,8.437 -18.765,11.212 -26.909,11.199 -4.263,-0.008 -6.799,-0.602 -16.64,-3.904 -4.518,-1.516 -9.222,-3.005 -10.454,-3.311 -6.082,-1.507 -10.445,-3.069 -14.933,-5.346 -4.512,-2.29 -6.653,-3.788 -18.865,-13.198 -13.322,-10.266 -20.875,-14.953 -30.095,-18.673 -12.724,-5.134 -18.916,-8.635 -23.767,-13.441 -5.315,-5.265 -6.51,-9.893 -4.824,-18.674 0.293,-1.525 0.721,-3.877 0.95,-5.226 2.783,-16.393 -0.318,-36.086 -9.053,-57.494 -3.976,-9.744 -4.859,-12.616 -5.638,-18.346 -2.722,-20.013 4.18,-37.311 22.384,-56.107 2.728,-2.816 6.642,-6.992 8.698,-9.28 12.572,-13.987 26.759,-25.802 38.287,-31.885 5.847,-3.085 8.514,-3.723 19.226,-4.599 8.031,-0.656 10.786,-1.119 14.606,-2.454 9.279,-3.242 10.124,-3.453 13.939,-3.492 1.251,-0.013 3.026,0.12 3.944,0.296 m -6.219,5.325 c -2.362,0.432 -4.651,1.136 -7.687,2.362 -4.932,1.993 -7.834,2.614 -15.459,3.308 -11.897,1.083 -15.631,2.303 -23.774,7.768 -11.142,7.479 -20.347,15.834 -30.856,28.011 -1.848,2.142 -5.473,6.174 -8.054,8.96 -9.353,10.096 -12.793,15.061 -16.741,24.16 -7.065,16.281 -6.822,29.703 0.876,48.427 9.334,22.703 11.908,40.014 8.756,58.88 -1.855,11.105 -0.936,14.855 5.078,20.713 4.797,4.673 9.926,7.611 21.195,12.142 10.816,4.348 16.398,7.892 34.453,21.869 10.867,8.413 15.832,10.948 27.307,13.945 2.229,0.582 6.597,1.937 9.706,3.01 18.395,6.349 25.073,5.087 42.987,-8.124 3.938,-2.905 11.999,-8.326 16.853,-11.334 1.995,-1.237 5.835,-3.616 8.534,-5.288 6.381,-3.953 11.248,-7.26 16,-10.87 2.112,-1.605 5.472,-4.109 7.466,-5.566 16.202,-11.833 19.774,-17.4 25.261,-39.361 1.508,-6.038 2.211,-8.133 3.778,-11.267 2.713,-5.422 5.371,-8.813 14.359,-18.311 11.624,-12.285 12.957,-17.756 8.535,-35.052 -3.875,-15.154 -3.816,-15.005 -8.254,-20.955 -2.479,-3.323 -3.121,-4.489 -4.851,-8.805 -2.239,-5.583 -2.954,-6.728 -6.867,-10.992 -4.416,-4.812 -5.002,-5.598 -7.856,-10.554 -0.912,-1.584 -2.336,-3.936 -3.164,-5.227 -0.828,-1.291 -3.05,-5.375 -4.938,-9.075 -9.249,-18.132 -14.556,-21.001 -38.083,-20.587 -14.247,0.251 -16.1,-0.312 -20.225,-6.143 -3.506,-4.955 -5.893,-6.111 -12.054,-5.839 -7.874,0.348 -15.969,-1.783 -26.178,-6.892 -6.65,-3.328 -11.058,-4.235 -16.103,-3.313 m 8.384,1.179 c 2.042,0.494 4.83,1.6 6.976,2.767 8.94,4.859 18.16,7.319 27.094,7.228 6.406,-0.065 7.813,0.64 11.355,5.688 4.082,5.818 5.239,6.174 20.111,6.196 13.892,0.02 18.322,0.578 23.821,2.999 5.688,2.505 8.287,5.717 14.573,18.005 1.831,3.579 4.007,7.563 4.836,8.854 0.829,1.29 2.159,3.498 2.956,4.906 2.487,4.4 3.417,5.649 7.31,9.824 3.959,4.245 5.038,5.934 7.106,11.124 1.643,4.122 2.784,6.161 5.444,9.726 3.376,4.526 3.816,5.491 5.754,12.633 6.844,25.211 6.203,28.657 -8.108,43.595 -11.088,11.575 -13.527,15.772 -16.862,29.018 -5.285,20.99 -8.54,25.966 -24.886,38.054 -2.976,2.2 -6.61,4.92 -8.077,6.044 -3.613,2.769 -11.815,8.2 -19.307,12.786 -7.312,4.476 -15.893,10.143 -20.8,13.738 -18.24,13.364 -24.294,14.569 -42.236,8.414 -3.229,-1.108 -7.838,-2.533 -10.244,-3.166 -12.268,-3.229 -15.576,-4.993 -29.245,-15.593 -15.657,-12.141 -21.407,-15.705 -32.842,-20.359 -10.482,-4.266 -16.226,-7.581 -20.564,-11.87 -5.432,-5.369 -6.388,-9.567 -4.559,-20.021 2.113,-12.075 1.824,-22.009 -1.012,-34.707 -1.664,-7.449 -4.47,-16.303 -7.459,-23.533 -5.209,-12.601 -6.248,-17.395 -6.024,-27.793 0.197,-9.128 2.091,-15.964 7.085,-25.57 3.762,-7.237 6.392,-10.732 15.15,-20.13 2.023,-2.171 4.302,-4.667 5.066,-5.547 0.763,-0.88 2.514,-2.896 3.89,-4.48 9.055,-10.422 18.39,-18.75 28.863,-25.75 8.429,-5.635 10.944,-6.468 23.038,-7.633 8.493,-0.818 10.641,-1.274 16.053,-3.408 3.198,-1.261 5.228,-1.895 7.147,-2.232 0.704,-0.124 1.52,-0.268 1.813,-0.32 1.115,-0.199 5.085,0.102 6.784,0.513 m -24.459,11.737 c -14.681,1.234 -27.537,6.838 -43.978,19.169 -13.979,10.485 -21.554,18.955 -27.118,30.324 -3.511,7.174 -3.876,7.854 -6.525,12.148 -5.892,9.554 -7.223,13.779 -7.463,23.692 -0.263,10.856 0.932,17.088 6.452,33.662 6.086,18.271 6.528,20.49 7.023,35.245 0.902,26.939 4.604,32.954 26.458,42.994 12.45,5.72 16.774,8.485 28.906,18.486 14.303,11.79 24.426,16.897 37.12,18.725 17.206,2.478 32.003,-2.239 55.147,-17.578 3.403,-2.255 9.211,-5.903 12.907,-8.107 21.511,-12.826 26.518,-18.52 33.477,-38.073 3.467,-9.74 4.4,-11.614 11.642,-23.381 2.022,-3.285 4.569,-7.605 5.66,-9.6 2.31,-4.223 3.71,-6.523 7.533,-12.373 8.557,-13.094 10.895,-18.946 11.171,-27.959 0.365,-11.908 -2.471,-18.803 -14.204,-34.548 -5.749,-7.713 -7.574,-10.44 -12.553,-18.758 -9.911,-16.56 -14.81,-21.836 -24.7,-26.602 -7.036,-3.392 -12.383,-4.237 -30.826,-4.873 -8.525,-0.294 -9.946,-0.631 -15.185,-3.593 -8.929,-5.05 -17.869,-7.235 -31.548,-7.714 -3.337,-0.117 -8.707,-0.455 -11.934,-0.751 -6.446,-0.591 -14.028,-0.823 -17.462,-0.535 m 14.049,1.165 c 2.053,0.169 5.413,0.454 7.466,0.635 2.054,0.18 6.422,0.422 9.707,0.538 11.633,0.409 20.519,2.624 28.721,7.158 6.009,3.322 7.165,3.637 14.479,3.943 20.727,0.87 24.44,1.39 31.14,4.361 10.029,4.446 15.29,10.02 25.387,26.893 4.888,8.168 6.364,10.383 11.732,17.6 10.833,14.565 13.652,20.225 14.718,29.547 1.206,10.545 -1.272,18.113 -10.654,32.533 -3.932,6.045 -5.708,8.954 -7.672,12.575 -1.805,3.325 -2.855,5.095 -7.094,11.958 -5.536,8.961 -7.176,12.325 -10.324,21.172 -6.917,19.444 -11.921,25.215 -32.416,37.389 -3.515,2.088 -9.558,5.882 -13.43,8.431 -21.308,14.031 -33.067,18.421 -48.408,18.07 -15.078,-0.344 -26.657,-5.411 -42.792,-18.724 -12.577,-10.376 -16.46,-12.905 -27.84,-18.124 -22.97,-10.536 -26.688,-16.255 -27.41,-42.164 -0.413,-14.798 -0.994,-17.841 -6.614,-34.668 -6.186,-18.518 -7.708,-26.899 -6.851,-37.728 0.644,-8.141 1.674,-11.106 6.813,-19.621 2.163,-3.584 4.325,-7.561 6.325,-11.633 6.335,-12.897 13.406,-20.904 28.057,-31.773 14.99,-11.122 27.431,-16.839 39.68,-18.236 1.114,-0.127 2.314,-0.264 2.666,-0.305 1.795,-0.21 11.33,-0.096 14.614,0.173 m -11.908,4.833 c -13.49,0.912 -26.222,6.384 -41.578,17.869 -14.207,10.626 -20.597,17.895 -26.932,30.639 -1.865,3.753 -4.165,7.989 -5.56,10.24 -5.552,8.962 -7.035,13.963 -7.035,23.722 -0.001,9.594 1.392,16.275 6.596,31.638 5.04,14.882 5.852,18.806 6.197,29.974 0.506,16.325 1.169,20.594 4.113,26.453 3.549,7.064 8.448,10.828 22.519,17.3 10.528,4.843 14.665,7.535 26.231,17.072 14.785,12.191 25.361,17.036 39.329,18.017 14.426,1.013 27.779,-3.735 47.761,-16.983 3.227,-2.14 9.013,-5.772 12.86,-8.073 19.746,-11.809 24.829,-17.527 31.036,-34.906 3.664,-10.262 4.444,-11.852 11.253,-22.934 2.018,-3.285 4.487,-7.461 5.485,-9.28 2.28,-4.155 3.582,-6.299 6.993,-11.52 8.628,-13.206 10.88,-19.035 10.88,-28.16 0,-10.466 -2.974,-17.279 -13.967,-32 -5.057,-6.771 -6.86,-9.489 -12.258,-18.474 -13.706,-22.813 -21.612,-27.519 -47.802,-28.454 -12.938,-0.461 -12.672,-0.4 -20.8,-4.797 -6.657,-3.601 -16.082,-5.723 -27.06,-6.092 -3.304,-0.111 -8.071,-0.392 -10.593,-0.625 -9.094,-0.838 -12.658,-0.964 -17.668,-0.626 m 16.921,1.457 c 2.464,0.243 7.648,0.581 11.52,0.75 11.975,0.525 20.678,2.598 27.723,6.604 6.426,3.653 7.084,3.803 18.357,4.185 14.966,0.507 20.033,1.363 26.453,4.468 9.107,4.404 13.551,9.209 22.761,24.606 4.802,8.027 6.529,10.621 11.61,17.437 6.351,8.52 8.094,11.181 10.193,15.561 4.196,8.758 4.858,18.065 1.925,27.068 -1.437,4.413 -3.564,8.264 -10.262,18.586 -2.406,3.706 -3.556,5.647 -6.577,11.093 -0.683,1.232 -2.638,4.496 -4.344,7.253 -6.871,11.106 -7.99,13.389 -11.762,23.994 -6.006,16.882 -11.014,22.407 -31.25,34.473 -3.403,2.029 -8.779,5.411 -11.947,7.515 -19.129,12.706 -30.006,16.855 -44.267,16.887 -15.259,0.034 -26.375,-4.797 -43.2,-18.774 -10.002,-8.309 -14.498,-11.228 -24.275,-15.757 -23.229,-10.762 -26.282,-15.589 -26.926,-42.578 -0.275,-11.548 -0.975,-14.985 -6.376,-31.292 -5.024,-15.173 -5.981,-19.472 -6.426,-28.868 -0.491,-10.364 1.147,-16.213 7.349,-26.24 1.204,-1.947 3.541,-6.284 5.23,-9.706 6.075,-12.31 12.239,-19.343 26.033,-29.702 15.459,-11.61 26.631,-16.561 40.751,-18.057 2.241,-0.237 13.462,0.076 17.707,0.494 m -16.427,4.502 c -13.245,0.761 -25.314,5.877 -40.32,17.091 -12.786,9.555 -19.605,17.278 -25.017,28.335 -1.531,3.126 -3.892,7.477 -5.558,10.24 -5.57,9.237 -6.542,12.609 -6.521,22.617 0.019,9.56 0.979,14.294 5.839,28.8 5.279,15.759 5.835,18.489 6.191,30.4 0.766,25.67 3.802,30.435 25.878,40.616 9.359,4.316 13.401,6.975 24.362,16.029 14.855,12.271 25.365,16.702 39.68,16.729 14.038,0.027 24.133,-3.784 42.801,-16.16 3.094,-2.051 8.553,-5.477 12.132,-7.615 17.72,-10.583 23.312,-16.703 28.464,-31.146 4.051,-11.354 4.711,-12.73 11.108,-23.147 2.017,-3.285 4.321,-7.173 5.119,-8.64 2.085,-3.83 3.212,-5.69 6.72,-11.093 9.063,-13.957 11.359,-20.784 10.261,-30.507 -0.986,-8.729 -3.564,-13.91 -13.639,-27.413 -4.32,-5.79 -6.053,-8.405 -10.566,-15.952 -8.217,-13.737 -12.703,-18.71 -20.594,-22.827 -6.722,-3.507 -12.403,-4.521 -27.753,-4.955 -8.451,-0.239 -10.068,-0.598 -14.933,-3.316 -7.922,-4.424 -15.853,-6.419 -27.094,-6.815 -3.109,-0.11 -7.813,-0.396 -10.453,-0.637 -4.381,-0.4 -12.237,-0.897 -13.013,-0.824 -0.176,0.017 -1.568,0.102 -3.094,0.19 m 15.254,1.469 c 2.522,0.245 7.197,0.538 10.389,0.65 11.224,0.395 19.703,2.4 26.739,6.323 6.243,3.48 6.592,3.56 17.058,3.921 16.724,0.577 22.056,1.766 29.44,6.562 6.323,4.106 9.858,8.368 17.385,20.958 4.429,7.408 6.26,10.157 10.87,16.32 9.974,13.332 12.621,19.025 13.246,28.48 0.558,8.438 -1.843,14.937 -10.308,27.896 -2.798,4.284 -4.663,7.388 -7.083,11.784 -0.743,1.349 -2.568,4.421 -4.055,6.826 -6.731,10.883 -7.754,12.937 -11.082,22.248 -6.009,16.813 -10.637,22.031 -29.455,33.21 -3.225,1.916 -8.504,5.23 -11.731,7.365 -12.048,7.969 -17.64,10.891 -25.874,13.52 -15.931,5.088 -31.452,2.658 -46.339,-7.255 -3.473,-2.312 -4.578,-3.164 -10.797,-8.319 -9.56,-7.924 -13.346,-10.311 -24.784,-15.625 -18.876,-8.771 -22.544,-14.426 -23.188,-35.757 -0.461,-15.278 -0.7,-16.562 -6.193,-33.173 -5.111,-15.461 -6.013,-19.845 -6.011,-29.227 0.003,-9.255 1.102,-13.277 5.69,-20.813 3.24,-5.324 3.95,-6.608 5.769,-10.44 4.076,-8.591 6.402,-11.882 13.205,-18.681 13.213,-13.206 30.332,-23.522 43.492,-26.208 2.271,-0.463 3.471,-0.646 6.977,-1.062 1.941,-0.23 12.355,0.081 16.64,0.497 m -14.827,6.333 c -12.396,1.271 -24.662,7.033 -38.471,18.071 -10.598,8.472 -15.481,14.293 -20.339,24.244 -1.288,2.638 -3.502,6.714 -4.921,9.059 -5.097,8.424 -6.136,11.959 -6.136,20.894 0,8.864 1.008,13.824 5.555,27.333 4.752,14.12 5.377,17.263 5.644,28.373 0.547,22.776 3.619,27.572 23.617,36.871 9.266,4.309 12.782,6.613 22.998,15.079 13.31,11.031 24.05,15.57 36.836,15.57 12.403,0 22.757,-3.968 39.711,-15.218 2.896,-1.922 7.81,-5.009 10.919,-6.86 16.905,-10.064 21.718,-15.447 26.966,-30.158 3.093,-8.67 4.439,-11.489 8.98,-18.804 2.475,-3.988 5.055,-8.371 6.974,-11.848 0.65,-1.178 2.059,-3.506 3.131,-5.174 1.072,-1.667 2.83,-4.399 3.907,-6.071 5.923,-9.2 8.06,-16.095 7.42,-23.944 -0.679,-8.33 -3.106,-13.472 -12.029,-25.488 -4.938,-6.648 -5.772,-7.899 -10.483,-15.728 -8.609,-14.307 -13.236,-18.989 -22.392,-22.661 -5.187,-2.081 -8.04,-2.446 -25.06,-3.212 -5.178,-0.233 -6.86,-0.595 -9.579,-2.065 -4.847,-2.62 -6.297,-3.296 -8.768,-4.092 -6.605,-2.127 -10.242,-2.767 -17.28,-3.041 -2.992,-0.116 -7.504,-0.408 -10.027,-0.647 -4.3,-0.409 -14.973,-0.709 -17.173,-0.483 m 16.213,1.349 c 2.582,0.242 7.19,0.531 10.24,0.642 9.797,0.358 17.761,2.296 24.131,5.875 3.866,2.172 5.066,2.644 8.083,3.182 0.352,0.062 3.424,0.213 6.826,0.334 16.453,0.584 21.404,1.695 28.394,6.37 5.741,3.841 8.849,7.645 15.974,19.555 3.965,6.627 5.605,9.1 9.272,13.974 10.625,14.125 13.127,19.966 12.745,29.76 -0.298,7.656 -2.037,11.808 -10.191,24.332 -1.456,2.236 -3.271,5.195 -4.034,6.576 -1.379,2.499 -5.129,8.83 -8.079,13.641 -3.568,5.819 -5.072,9.025 -7.775,16.571 -5.596,15.623 -9.696,20.23 -27.385,30.779 -3.072,1.832 -7.968,4.908 -10.88,6.835 -16.994,11.251 -27.733,15.215 -40.067,14.791 -12.474,-0.429 -22.026,-4.699 -35.627,-15.927 -8.692,-7.175 -12.275,-9.615 -18.827,-12.819 -2.376,-1.162 -6.264,-3.064 -8.64,-4.226 -14.389,-7.039 -17.483,-12.664 -18.079,-32.873 -0.368,-12.468 -0.871,-15.008 -5.98,-30.187 -4.42,-13.132 -5.555,-19.183 -5.262,-28.053 0.258,-7.813 1.381,-11.187 6.428,-19.307 1.02,-1.643 3.007,-5.339 4.414,-8.213 5.267,-10.76 11.213,-17.554 23.119,-26.416 18.494,-13.764 30.019,-17.185 51.2,-15.196 m 1.174,5.798 c -0.88,0.101 -3.904,0.568 -6.72,1.037 -2.816,0.47 -7.568,1.144 -10.56,1.498 -19.036,2.251 -28.312,7.094 -40.762,21.281 -10.16,11.577 -20.292,29.44 -22.477,39.624 -2.415,11.26 -1.355,18.136 4.672,30.294 5.163,10.413 6.016,13.451 6.828,24.32 1.291,17.258 2.263,19.514 11.312,26.231 6.568,4.874 8.557,6.425 14.933,11.636 22.297,18.223 31.265,22.513 47.04,22.502 11.492,-0.008 20.189,-2.723 30.423,-9.497 3.662,-2.424 6.51,-3.805 11.604,-5.627 12.399,-4.434 15.484,-6.188 20.292,-11.539 4.476,-4.982 6.832,-8.901 13.848,-23.04 5.7,-11.488 6.941,-13.692 13.145,-23.36 12.087,-18.831 15.837,-28.8 14.252,-37.889 -1.026,-5.883 -3.572,-10.936 -12.186,-24.191 -1.411,-2.17 -3.355,-5.329 -4.321,-7.019 -8.353,-14.615 -19.923,-24.355 -31.554,-26.561 -3.119,-0.592 -13.601,-1.412 -23.396,-1.832 -8.918,-0.381 -10.701,-0.807 -18.987,-4.53 -7.726,-3.472 -10.907,-4.083 -17.386,-3.338 m 6.933,0.837 c 2.687,0.308 4.049,0.699 7.13,2.052 11.963,5.251 12.705,5.456 21.137,5.837 15.909,0.719 23.745,1.481 27.535,2.679 10.759,3.398 20.257,12.175 28.26,26.115 0.909,1.584 3.243,5.328 5.187,8.32 11.562,17.798 13.081,23.47 9.327,34.821 -2.376,7.183 -4.979,12.118 -13.03,24.699 -6.731,10.518 -7.702,12.25 -12.694,22.629 -11.055,22.988 -15.788,28.076 -31.145,33.483 -7.704,2.712 -10.359,3.942 -14.631,6.779 -17.429,11.573 -37.547,12.534 -54.809,2.617 -6.015,-3.456 -10.9,-7.054 -22.614,-16.658 -5.157,-4.228 -8.086,-6.512 -12.449,-9.707 -9.978,-7.309 -10.978,-9.355 -12.087,-24.743 -0.906,-12.581 -1.62,-15.273 -6.926,-26.133 -4.79,-9.806 -5.494,-12.139 -5.701,-18.892 -0.376,-12.29 3.068,-21.304 15.2,-39.775 7.935,-12.083 18.231,-21.876 27.918,-26.557 5.686,-2.748 9.549,-3.68 20.805,-5.019 2.984,-0.355 7.699,-1.028 10.477,-1.496 7.371,-1.243 9.761,-1.434 13.11,-1.051 m -6.175,4.292 c -0.933,0.107 -3.663,0.53 -6.067,0.941 -2.405,0.411 -6.778,1.032 -9.718,1.38 -15.369,1.818 -21.786,4.357 -31.03,12.275 -11.723,10.042 -25.273,30.631 -28.622,43.49 -2.944,11.302 -1.875,18.913 4.36,31.052 4.315,8.4 5.251,11.923 6.104,22.955 1.265,16.368 1.864,17.551 13.015,25.688 1.818,1.327 5.212,3.958 7.54,5.845 17.334,14.05 20.135,16.067 27.253,19.624 15.789,7.891 33.601,6.552 49.367,-3.712 4.75,-3.092 6.541,-3.933 13.866,-6.51 13.617,-4.791 19.1,-10.093 27.022,-26.13 0.898,-1.819 3.028,-6.139 4.732,-9.6 3.394,-6.895 4.356,-8.57 9.76,-16.998 6.184,-9.645 8.657,-13.995 10.771,-18.949 6.076,-14.239 4.993,-20.313 -6.866,-38.506 -3.523,-5.407 -3.885,-5.989 -5.639,-9.067 -7.421,-13.029 -18.357,-22.293 -28.946,-24.521 -2.948,-0.62 -12.42,-1.4 -22.14,-1.824 -8.949,-0.39 -10.704,-0.8 -18.433,-4.31 -7.111,-3.229 -10.206,-3.821 -16.329,-3.123 m 8.628,1.169 c 1.488,0.293 2.926,0.865 10.083,4.005 5.069,2.224 7.883,2.814 14.877,3.122 15.483,0.683 22.499,1.426 26.454,2.803 9.763,3.4 18.082,11.255 25.6,24.172 1.093,1.878 3.492,5.718 5.331,8.534 14.143,21.65 13.696,28.101 -3.843,55.466 -6.32,9.861 -6.686,10.521 -13.307,24 -9.226,18.782 -14.206,24.053 -26.901,28.474 -7.881,2.744 -11.012,4.176 -15.092,6.9 -13.212,8.821 -28.352,11.067 -42.598,6.32 -8.01,-2.67 -14.882,-7.152 -29.884,-19.49 -2.757,-2.268 -7.434,-5.934 -10.393,-8.148 -11.42,-8.542 -11.865,-9.398 -12.968,-24.936 -0.823,-11.587 -1.702,-14.734 -7.092,-25.386 -4.915,-9.713 -5.985,-16.752 -4.002,-26.318 2.824,-13.616 17.449,-36.213 30.031,-46.4 8.766,-7.097 14.938,-9.378 30.131,-11.135 2.112,-0.244 6.144,-0.827 8.96,-1.296 7.808,-1.3 10.788,-1.44 14.613,-0.687 m -8.32,3.6 c -1.232,0.153 -3.974,0.573 -6.093,0.934 -2.12,0.36 -5.912,0.898 -8.427,1.196 -13.423,1.586 -18.568,3.397 -26.504,9.332 -13.072,9.775 -28.15,32.84 -30.564,46.753 -1.59,9.167 -0.614,14.607 4.501,25.087 4.754,9.742 5.387,12.08 6.176,22.827 1.087,14.792 1.849,16.282 12.2,23.842 3.292,2.405 5.672,4.288 13.405,10.607 13.449,10.989 21.635,15.628 30.645,17.367 11.926,2.301 25.012,-0.342 34.955,-7.06 4.446,-3.004 6.423,-3.962 12.859,-6.227 15.222,-5.357 18.482,-8.915 30.221,-32.982 3.333,-6.832 4.911,-9.609 9.64,-16.96 7.234,-11.246 9.72,-15.939 11.925,-22.507 3.496,-10.416 2.071,-16.085 -7.878,-31.329 -1.734,-2.657 -4.046,-6.367 -5.139,-8.244 -7.379,-12.678 -16.191,-20.641 -25.982,-23.479 -3.475,-1.007 -10.076,-1.641 -23.276,-2.236 -7.695,-0.348 -9.644,-0.815 -16.832,-4.034 -7.125,-3.192 -9.657,-3.653 -15.832,-2.887 m 8.465,1.077 c 1.922,0.397 2.557,0.639 7.211,2.747 6.792,3.077 9.074,3.644 15.949,3.963 9.901,0.459 18.034,1.079 21.274,1.623 10.445,1.752 20.818,10.512 28.386,23.972 0.626,1.115 2.29,3.803 3.697,5.974 4.913,7.578 5.95,9.302 7.505,12.48 5.984,12.222 4.117,20.043 -10.03,42.026 -5.132,7.975 -5.903,9.351 -10.998,19.627 -10.429,21.034 -14.204,25.21 -26.807,29.655 -7.788,2.747 -10.1,3.812 -14.339,6.608 -14.173,9.345 -30.656,10.743 -45.033,3.818 -6.083,-2.93 -11.197,-6.491 -21.866,-15.222 -6.652,-5.444 -8.568,-6.952 -12.054,-9.487 -9.565,-6.956 -10.235,-8.282 -11.312,-22.403 -0.881,-11.548 -1.65,-14.382 -6.489,-23.902 -7.741,-15.234 -6.531,-26.739 4.747,-45.12 9.237,-15.054 17.774,-24.13 27.561,-29.301 5.437,-2.873 9.182,-3.825 20.229,-5.144 2.502,-0.299 6.486,-0.873 8.854,-1.276 6.389,-1.087 10.421,-1.277 13.515,-0.638 m -7.077,3.087 c -0.938,0.107 -3.386,0.481 -5.44,0.831 -2.054,0.35 -6.441,0.973 -9.749,1.383 -12.686,1.574 -17.992,3.607 -25.772,9.872 -11.71,9.43 -24.651,29.403 -27.32,42.164 -1.823,8.717 -0.807,14.778 4.173,24.888 4,8.12 4.971,11.412 5.543,18.774 1.34,17.241 1.453,17.48 12.019,25.366 2.485,1.855 7.22,5.582 10.522,8.282 10.107,8.265 14.423,11.315 20.023,14.15 14.249,7.213 30.204,6.062 44.48,-3.209 4.314,-2.802 5.84,-3.513 12.587,-5.867 8.527,-2.975 12.498,-5.717 17.04,-11.766 2.986,-3.977 4.455,-6.637 10.758,-19.49 3.038,-6.194 4.576,-8.867 9.575,-16.64 15.464,-24.04 15.88,-30.47 3.229,-49.936 -3.372,-5.188 -3.801,-5.876 -5.511,-8.837 -6.424,-11.13 -15.327,-18.882 -24.512,-21.347 -2.935,-0.787 -10.352,-1.459 -22.206,-2.01 -6.864,-0.319 -8.665,-0.794 -16.533,-4.354 -4.79,-2.168 -8.292,-2.78 -12.906,-2.254 m 7.244,1.17 c 1.689,0.349 2.759,0.762 7.582,2.929 5.666,2.546 8.491,3.209 14.72,3.458 13.054,0.521 20.157,1.268 23.593,2.48 8.929,3.151 16.272,10.076 22.981,21.672 0.894,1.545 3.052,5.001 4.795,7.68 12.481,19.18 12.093,24.924 -3.309,48.939 -5.293,8.253 -6.317,10.07 -10.649,18.897 -10.076,20.53 -13.355,24.039 -26.894,28.785 -6.155,2.157 -8.435,3.24 -12.37,5.876 -13.08,8.764 -29.398,9.975 -42.947,3.187 -5.617,-2.814 -10.331,-6.147 -20.694,-14.63 -3.109,-2.545 -6.997,-5.628 -8.64,-6.85 -11.306,-8.413 -11.821,-9.27 -12.686,-21.095 -0.88,-12.014 -1.597,-15.006 -5.395,-22.506 -5.623,-11.106 -6.652,-17.042 -4.552,-26.258 2.564,-11.249 14.229,-29.847 24.361,-38.84 8.801,-7.811 14.4,-10.16 28.139,-11.805 2.581,-0.309 6.661,-0.886 9.067,-1.283 5.727,-0.946 5.239,-0.892 8.489,-0.929 1.83,-0.021 3.393,0.083 4.409,0.293 m -11.938,2.385 c -1.934,0.178 -6.03,1.007 -10.45,2.118 -2.583,0.648 -6.137,1.499 -7.897,1.891 -12.064,2.683 -20.332,8.62 -28.077,20.161 -0.984,1.467 -2.894,4.087 -4.243,5.823 -5.755,7.402 -6.96,10.474 -7.191,18.326 -0.305,10.346 1.594,21.439 6.243,36.474 1.983,6.415 1.998,6.485 2.234,10.63 0.448,7.856 0.83,8.862 5.808,15.293 6.127,7.913 11.25,11.904 25.226,19.65 20.178,11.185 36.143,12.508 54.266,4.5 15.384,-6.799 25.91,-17.388 33.266,-33.469 4.538,-9.918 7.655,-15.637 13.198,-24.214 12.613,-19.516 11.415,-30.485 -5.371,-49.173 -1.317,-1.467 -3.48,-3.867 -4.805,-5.333 -1.325,-1.467 -3.262,-3.695 -4.303,-4.951 -3.904,-4.708 -5.465,-5.55 -12.192,-6.573 -4.069,-0.619 -5.12,-0.993 -8.656,-3.078 -4.552,-2.685 -5.678,-2.98 -12.674,-3.327 -4.962,-0.246 -7.083,-0.582 -15.367,-2.436 -9.604,-2.15 -14.413,-2.734 -19.015,-2.312 m 5.76,0.92 c 3.387,0.313 6.974,0.941 12.839,2.251 8.403,1.875 10.601,2.228 15.321,2.46 7.168,0.352 8.495,0.702 12.971,3.421 2.668,1.621 4.701,2.38 7.615,2.844 7.748,1.233 8.733,1.723 12.541,6.246 1.181,1.402 3.522,4.067 5.203,5.922 11.97,13.207 15.435,18.526 17.059,26.189 1.769,8.345 -0.036,14.484 -7.824,26.61 -4.981,7.757 -8.081,13.3 -11.282,20.177 -4.614,9.91 -5.748,12.018 -8.658,16.09 -6.086,8.519 -14.368,15.388 -24.179,20.055 -19.272,9.169 -35.582,7.751 -57.74,-5.017 -12.458,-7.179 -16.086,-10.002 -21.376,-16.638 -5.718,-7.172 -6.222,-8.3 -6.577,-14.72 -0.281,-5.075 -0.422,-5.841 -2.044,-11.074 -4.467,-14.424 -6.254,-23.605 -6.624,-34.046 -0.337,-9.497 0.995,-13.415 7.287,-21.44 1.196,-1.525 3.017,-4.021 4.047,-5.547 7.919,-11.728 15.467,-17.133 27.699,-19.834 1.783,-0.394 5.114,-1.197 7.402,-1.785 4.761,-1.223 8.152,-1.905 10.704,-2.151 2.592,-0.25 3.03,-0.251 5.616,-0.013 m -4.267,4.194 c -3.06,0.38 -5.842,0.932 -10.027,1.988 -2.698,0.681 -6.104,1.498 -7.567,1.816 -10.766,2.343 -18.35,7.841 -25.742,18.665 -1.162,1.702 -2.983,4.198 -4.046,5.547 -2.322,2.947 -3.438,4.583 -4.292,6.293 -4.077,8.163 -2.867,23.23 3.555,44.267 1.768,5.791 2.139,7.67 2.145,10.88 0.011,5.305 0.916,7.499 5.556,13.469 4.986,6.416 8.853,9.593 18.666,15.34 22.894,13.406 38.141,14.884 57.165,5.542 13.046,-6.406 21.96,-15.724 28.273,-29.553 4.017,-8.799 7.166,-14.614 11.885,-21.948 4.719,-7.333 6.35,-10.526 7.478,-14.637 0.727,-2.647 0.836,-9.373 0.19,-11.733 -2.093,-7.65 -4.876,-11.915 -15.311,-23.467 -2.279,-2.522 -4.739,-5.318 -5.467,-6.212 -3.3,-4.054 -5.071,-4.987 -11.261,-5.931 -3.583,-0.547 -4.76,-0.972 -7.999,-2.889 -4.092,-2.422 -5.308,-2.726 -12.374,-3.088 -4.134,-0.212 -6.375,-0.573 -13.334,-2.149 -8.653,-1.961 -14.007,-2.634 -17.493,-2.2 m 8.32,1.36 c 1.643,0.23 4.523,0.76 6.4,1.176 9.124,2.024 11.505,2.448 14.933,2.662 8.137,0.507 9.269,0.745 12.317,2.588 4.099,2.479 4.889,2.77 9.697,3.576 5.403,0.905 6.717,1.563 9.406,4.707 0.753,0.88 3.591,4.085 6.308,7.121 10.743,12.009 13.931,17.105 15.154,24.225 1.332,7.758 -0.343,12.91 -8.123,24.977 -3.907,6.059 -7.516,12.635 -10.301,18.771 -7.026,15.481 -14.293,23.794 -26.839,30.704 -17.107,9.421 -33.037,9.225 -51.828,-0.638 -12.814,-6.726 -19.108,-11.347 -24.3,-17.841 -5.341,-6.68 -5.882,-7.868 -6.156,-13.505 -0.207,-4.275 -0.494,-6.03 -1.515,-9.244 -4.55,-14.324 -6.494,-24.632 -6.482,-34.364 0.01,-8.118 1.078,-10.966 6.922,-18.459 1.138,-1.459 2.918,-3.907 3.954,-5.44 6.487,-9.592 13.856,-15.075 23.253,-17.302 1.349,-0.32 4.709,-1.139 7.467,-1.82 10.578,-2.613 12.973,-2.843 19.733,-1.894 m -7.467,2.471 c -2.062,0.225 -5.983,1.017 -9.462,1.909 -2.071,0.532 -5.03,1.244 -6.576,1.582 -10.857,2.378 -17.654,7.335 -25.253,18.418 -1.06,1.545 -2.882,4.051 -4.049,5.568 -4.268,5.545 -5.341,8.805 -5.338,16.204 0.005,9.212 1.622,17.922 5.884,31.704 1.165,3.766 1.594,6.13 1.594,8.779 0,5.753 2.711,10.771 9.493,17.574 8.22,8.246 27.556,18.122 38.827,19.832 20.51,3.111 43.651,-9.915 53.434,-30.078 7.232,-14.906 8.176,-16.665 12.7,-23.68 6.248,-9.689 7.733,-13.675 7.509,-20.16 -0.286,-8.278 -3.496,-14.07 -14.424,-26.027 -1.341,-1.467 -3.51,-3.915 -4.821,-5.44 -4.386,-5.103 -5.119,-5.503 -12.102,-6.601 -2.768,-0.435 -3.993,-0.894 -6.577,-2.464 -3.721,-2.261 -5.232,-2.687 -10.248,-2.891 -4.249,-0.172 -6.854,-0.561 -13.524,-2.021 -8.836,-1.933 -13.754,-2.569 -17.067,-2.208 m 9.442,1.554 c 1.322,0.248 4.778,0.974 7.68,1.613 6.641,1.463 8.547,1.756 12.532,1.927 5.758,0.247 6.752,0.501 10.456,2.668 3.334,1.951 4.174,2.246 8.451,2.969 5.346,0.905 6.426,1.507 9.761,5.448 0.894,1.056 3.442,3.938 5.664,6.403 16.399,18.204 17.928,26.877 7.577,42.99 -5.317,8.278 -8.544,14.134 -12.164,22.08 -5.847,12.831 -13.576,21.282 -24.945,27.274 -16.471,8.682 -31.167,8.231 -49.174,-1.507 -12.779,-6.911 -17.258,-10.357 -22.864,-17.591 -3.742,-4.829 -4.268,-6.014 -4.576,-10.31 -0.425,-5.946 -0.506,-6.382 -2.21,-11.946 -3.927,-12.816 -5.335,-20.759 -5.316,-29.974 0.017,-8.067 0.788,-10.185 6.233,-17.124 1.034,-1.318 2.49,-3.308 3.235,-4.422 6.791,-10.157 13.829,-15.372 23.598,-17.487 1.162,-0.251 4.222,-0.986 6.8,-1.632 8.681,-2.176 13.258,-2.504 19.262,-1.379 m -7.948,3.564 c -2.059,0.205 -5.026,0.792 -9.079,1.795 -2.397,0.594 -5.262,1.275 -6.367,1.515 -9.013,1.952 -16.069,7.04 -21.987,15.851 -0.793,1.18 -2.336,3.298 -3.429,4.706 -4.979,6.413 -5.87,8.888 -5.842,16.213 0.033,8.433 1.443,16.197 5.095,28.054 1.409,4.573 1.414,4.598 1.712,8.664 0.433,5.906 0.727,6.643 4.671,11.709 8.786,11.288 28.394,21.938 42.654,23.167 18.088,1.558 38.202,-11.048 46.563,-29.184 4.044,-8.773 6.706,-13.727 10.878,-20.243 10.827,-16.912 9.769,-24.68 -5.696,-41.798 -1.804,-1.997 -4.106,-4.589 -5.115,-5.76 -3.834,-4.448 -4.718,-4.946 -10.215,-5.755 -2.913,-0.429 -4.336,-0.907 -6.281,-2.111 -3.691,-2.284 -4.867,-2.629 -9.936,-2.913 -4.439,-0.249 -6.251,-0.527 -12.542,-1.925 -7.34,-1.63 -12.21,-2.271 -15.084,-1.985 m 7.04,1.346 c 1.525,0.226 4.945,0.895 7.599,1.487 6.722,1.498 8.096,1.714 12.347,1.938 5.452,0.288 6.175,0.491 10.24,2.88 2.375,1.395 3.191,1.659 7.186,2.323 4.409,0.734 5.783,1.501 8.447,4.72 0.582,0.704 2.655,3.046 4.606,5.205 10.636,11.767 13.475,16.936 13.465,24.52 -0.007,5.457 -1.208,8.464 -7.045,17.635 -4.253,6.681 -5.161,8.377 -11.021,20.586 -9.373,19.528 -31.274,31.458 -50.354,27.43 -10.844,-2.29 -28.14,-11.782 -34.294,-18.821 -5.955,-6.811 -6.79,-8.494 -7.161,-14.431 -0.242,-3.874 -0.361,-4.436 -2.229,-10.498 -3.136,-10.178 -4.607,-18.522 -4.626,-26.24 -0.016,-6.689 0.895,-9.41 4.88,-14.585 0.961,-1.247 2.305,-3.062 2.987,-4.032 7.502,-10.676 12.756,-14.862 21.186,-16.88 0.997,-0.239 4.261,-1.026 7.253,-1.75 8.567,-2.071 11.068,-2.296 16.534,-1.487 m -4.267,3.745 c -0.587,0.159 -1.739,0.544 -2.56,0.856 -4.048,1.536 -4.669,1.671 -10.821,2.34 -14.55,1.583 -20.813,6.431 -25.095,19.422 -0.695,2.111 -1.847,5.107 -2.56,6.658 -1.719,3.744 -2,4.778 -2.007,7.401 -0.009,3.43 0.442,10.743 0.778,12.609 0.699,3.887 3.508,13.223 5.356,17.805 0.738,1.829 1.694,4.664 2.125,6.301 1.031,3.92 1.98,5.883 4.177,8.637 11.301,14.169 24.456,19.033 42.992,15.895 16.222,-2.746 23.201,-6.032 26.873,-12.651 1.572,-2.834 2.677,-4.493 4.601,-6.906 2.399,-3.008 3.043,-4.066 4.124,-6.772 1.15,-2.879 1.757,-3.771 4.003,-5.883 2.351,-2.211 3.517,-3.697 4.702,-5.993 8.889,-17.229 8.604,-26.728 -1.111,-37.103 -2.61,-2.787 -3.412,-3.869 -5.122,-6.906 -3.196,-5.68 -8.112,-8.056 -18.394,-8.89 -5.653,-0.459 -7.576,-0.95 -12.363,-3.156 -6.033,-2.781 -16.068,-4.648 -19.698,-3.664 m 9.086,1.37 c 4.339,0.914 6.943,1.726 10.644,3.318 5.366,2.308 6.84,2.666 12.803,3.108 9.665,0.718 14.107,3.023 17.583,9.128 0.968,1.698 2.071,3.258 3.2,4.522 4.211,4.714 4.778,5.406 5.759,7.029 4.408,7.291 4.244,13.803 -0.633,25.196 -3.026,7.069 -3.829,8.344 -7.322,11.633 -2.215,2.084 -2.65,2.741 -4.065,6.13 -1.118,2.677 -1.403,3.128 -4.436,7.025 -1.165,1.498 -2.76,3.865 -3.544,5.261 -4.193,7.466 -8.508,9.721 -24.675,12.897 -17.851,3.507 -30.32,-0.005 -41.253,-11.617 -4.382,-4.655 -5.744,-6.962 -7.087,-12.006 -0.406,-1.525 -1.355,-4.316 -2.109,-6.202 -1.275,-3.191 -3.512,-10.209 -4.595,-14.416 -0.807,-3.137 -1.033,-5.06 -1.305,-11.11 -0.313,-6.977 -0.307,-7.015 1.796,-11.717 0.76,-1.701 1.976,-4.869 2.701,-7.04 4.324,-12.95 10.365,-17.177 26.679,-18.671 2.736,-0.25 5.053,-0.789 7.466,-1.737 4.565,-1.793 6.743,-1.921 12.393,-0.731 m -6.206,3.778 c -1.667,0.255 -3.025,0.631 -4.658,1.289 -2.414,0.973 -3.845,1.289 -7.648,1.683 -14.089,1.464 -19.598,5.449 -23.514,17.015 -0.697,2.059 -1.84,5.022 -2.539,6.585 -1.92,4.29 -2.043,5.707 -1.3,14.882 0.328,4.041 2.801,13.065 5.121,18.681 0.581,1.408 1.394,3.808 1.805,5.333 1.304,4.833 2.981,7.499 7.656,12.166 10.586,10.57 21.898,12.842 41.29,8.294 10.016,-2.349 13.867,-4.493 16.633,-9.26 1.931,-3.327 2.805,-4.652 4.504,-6.827 2.226,-2.849 2.616,-3.474 3.403,-5.457 1.097,-2.761 1.473,-3.316 4.037,-5.955 3.185,-3.278 3.407,-3.655 6.8,-11.521 4.739,-10.987 3.664,-18.133 -3.998,-26.573 -2.163,-2.381 -3.043,-3.543 -4.095,-5.404 -3.198,-5.658 -7.731,-7.993 -16.617,-8.559 -4.505,-0.288 -6.504,-0.76 -10.133,-2.395 -5.169,-2.328 -13.927,-4.408 -16.747,-3.977 m 5.543,1.475 c 4.452,0.868 7.193,1.738 11.675,3.707 2.675,1.174 4.798,1.695 7.955,1.952 10.656,0.868 14.098,2.473 17.42,8.126 1.209,2.058 2.12,3.275 3.835,5.12 8.144,8.768 9.027,15.081 3.816,27.298 -2.635,6.179 -3.259,7.201 -6.303,10.323 -2.557,2.623 -2.994,3.265 -3.945,5.793 -0.745,1.977 -1.211,2.725 -3.674,5.893 -1.165,1.499 -2.584,3.563 -3.153,4.587 -3.075,5.531 -5.769,7.648 -12.049,9.468 -23.692,6.863 -37.551,3.782 -49.305,-10.961 -2.017,-2.529 -2.692,-3.919 -3.686,-7.587 -0.423,-1.559 -1.19,-3.863 -1.705,-5.12 -2.975,-7.258 -4.95,-14.986 -5.247,-20.526 -0.11,-2.053 -0.259,-4.405 -0.331,-5.227 -0.209,-2.367 0.187,-4.109 1.727,-7.6 0.758,-1.717 1.86,-4.589 2.451,-6.384 3.525,-10.713 9.332,-15.152 21.323,-16.299 5.111,-0.489 6.8,-0.818 8.841,-1.721 3.394,-1.501 5.922,-1.706 10.355,-0.842 m -5.863,4.242 c -0.704,0.162 -2.003,0.583 -2.886,0.935 -2.284,0.911 -2.965,1.065 -6.303,1.429 -13.002,1.417 -17.438,4.678 -21.189,15.574 -0.686,1.994 -1.703,4.616 -2.259,5.825 -2.475,5.379 -0.928,17.583 3.629,28.64 0.52,1.264 1.241,3.386 1.6,4.716 1.172,4.337 2.97,7.067 7.481,11.355 8.722,8.293 18.457,10.254 33.9,6.828 9.891,-2.194 13.404,-4.083 16.088,-8.649 1.681,-2.86 2.344,-3.844 4.092,-6.077 0.906,-1.158 1.932,-2.729 2.279,-3.492 0.347,-0.762 0.897,-1.974 1.222,-2.691 0.449,-0.994 1.118,-1.835 2.802,-3.527 1.811,-1.819 2.39,-2.567 3.202,-4.135 7.121,-13.749 6.845,-20.87 -1.142,-29.495 -1.397,-1.508 -2.381,-2.822 -3.177,-4.24 -2.908,-5.184 -6.19,-6.875 -14.83,-7.64 -4.072,-0.36 -5.669,-0.744 -8.722,-2.099 -5.611,-2.489 -12.731,-3.958 -15.787,-3.257 m 6.003,1.196 c 3.798,0.778 6.105,1.486 9.354,2.867 3.604,1.532 5.172,1.912 9.217,2.231 8.016,0.632 10.979,2.146 13.938,7.122 0.929,1.562 2.066,3.054 3.573,4.686 4.622,5.008 6.282,9.378 5.639,14.85 -0.648,5.526 -4.886,14.632 -8.166,17.547 -1.779,1.582 -2.47,2.581 -3.398,4.921 -0.773,1.948 -1.269,2.738 -3.551,5.658 -0.846,1.082 -2.066,2.908 -2.712,4.058 -2.97,5.293 -5.347,6.738 -14.681,8.928 -16.722,3.923 -26.189,2.031 -35.279,-7.052 -4.303,-4.299 -5.352,-5.955 -6.491,-10.248 -0.373,-1.408 -0.971,-3.226 -1.328,-4.039 -3.476,-7.93 -5.944,-20.994 -4.892,-25.898 0.128,-0.6 0.722,-2.173 1.319,-3.496 0.598,-1.324 1.564,-3.834 2.148,-5.579 3.339,-9.978 7.481,-12.973 19.972,-14.441 3.786,-0.445 4.018,-0.5 7.628,-1.784 2.579,-0.917 4.459,-0.998 7.71,-0.331 m -9.31,5.083 c -1.584,0.334 -4.128,0.953 -5.653,1.374 -1.525,0.422 -3.743,1.011 -4.928,1.308 -6.51,1.635 -8.552,3.403 -10.736,9.297 -1.67,4.509 -2.435,6.495 -3.287,8.533 -2.177,5.206 -1.557,9.787 2.366,17.493 2.338,4.591 3.413,7.041 4.962,11.31 4.477,12.336 13.044,17.56 26.956,16.436 13.55,-1.094 22.425,-7.284 27.107,-18.907 0.909,-2.255 2.839,-5.821 5.968,-11.023 3.442,-5.724 3.921,-7.406 3.68,-12.928 -0.553,-12.695 -6.103,-18.13 -19.206,-18.811 -7.116,-0.37 -12.568,-1.172 -15.382,-2.264 -6.888,-2.674 -7.414,-2.754 -11.847,-1.818 m 9.85,2.023 c 4.511,1.818 9.331,2.623 18.185,3.037 11.272,0.528 16.499,5.553 17.438,16.766 0.479,5.715 -0.045,7.708 -3.579,13.625 -3.594,6.016 -4.857,8.377 -6.133,11.466 -4.25,10.283 -12.116,16.152 -23.684,17.671 -13.964,1.833 -23.979,-3.182 -27.876,-13.959 -1.708,-4.724 -3.042,-7.838 -5.255,-12.269 -4.332,-8.675 -4.922,-13.428 -2.298,-18.502 0.205,-0.398 1.12,-2.754 2.033,-5.236 3.239,-8.814 3.619,-9.138 13.871,-11.833 11.195,-2.942 11.828,-2.97 17.298,-0.766 m -8.89,2.846 c -6.198,0.777 -11.619,3.149 -15.208,6.654 -2.283,2.229 -2.725,3.329 -4.211,10.482 -0.427,2.054 -0.959,4.502 -1.183,5.44 -1.017,4.256 -0.421,7.051 2.444,11.459 0.632,0.972 2.301,4.073 3.709,6.891 5.078,10.159 8.16,13.182 15.317,15.022 15.323,3.939 30.456,-4.578 34.023,-19.149 1.021,-4.171 1.307,-4.912 3.205,-8.308 4.835,-8.648 4.615,-15.65 -0.658,-20.923 -3.962,-3.961 -6.668,-4.8 -15.571,-4.822 l -6.293,-0.016 -3.2,-1.108 c -4.546,-1.574 -8.559,-2.1 -12.374,-1.622 m 8.758,1.439 c 1.18,0.288 2.668,0.732 3.307,0.986 2.805,1.116 2.76,1.11 10.015,1.265 7.593,0.163 7.891,0.208 10.667,1.607 8.529,4.302 10.225,12.521 4.657,22.572 -1.966,3.548 -2.367,4.571 -3.384,8.63 -2.964,11.832 -12.899,19.311 -25.7,19.346 -11.293,0.03 -16.036,-3.309 -22.06,-15.531 -1.281,-2.598 -2.875,-5.588 -3.542,-6.644 -3.073,-4.862 -3.4,-6.57 -2.242,-11.694 0.35,-1.547 0.973,-4.404 1.386,-6.35 0.412,-1.945 0.941,-4.093 1.175,-4.774 1.515,-4.403 8.338,-8.589 15.801,-9.693 0.874,-0.129 1.829,-0.277 2.122,-0.328 1.35,-0.237 5.738,0.106 7.798,0.608 m -6.304,5.043 c -7.679,0.942 -13.702,4.715 -15.53,9.728 -3.416,9.368 -2.897,13.432 2.392,18.74 2.817,2.826 3.38,3.7 4.31,6.686 2.035,6.538 4.859,8.971 11.174,9.629 14.107,1.468 22.863,-3.814 25.806,-15.569 0.739,-2.954 1.058,-3.806 2.517,-6.72 4.057,-8.106 3.906,-12.761 -0.553,-17.015 -2.856,-2.723 -5.732,-3.544 -13.263,-3.783 -4.97,-0.158 -5.383,-0.204 -8.414,-0.933 -3.51,-0.844 -5.971,-1.066 -8.439,-0.763 m 8.96,1.796 c 2.995,0.755 3.265,0.786 8.533,0.956 7.205,0.233 9.225,0.809 12.019,3.422 4.021,3.761 4.174,7.878 0.572,15.36 -1.581,3.284 -2.047,4.503 -2.772,7.254 -2.783,10.557 -9.207,15.305 -20.592,15.217 -9.543,-0.075 -12.306,-1.763 -14.603,-8.924 -1.134,-3.536 -1.413,-3.989 -4.205,-6.841 -4.5,-4.595 -5.574,-7.608 -4.324,-12.126 0.36,-1.301 0.887,-3.207 1.171,-4.235 2.398,-8.676 12.722,-12.978 24.201,-10.083 m -9.158,2.891 c -11.301,2.366 -15.178,12.927 -8.069,21.985 2.26,2.879 2.758,3.672 3.792,6.04 2.896,6.632 7.73,9.301 14.94,8.247 8.99,-1.315 14.226,-6.437 15.441,-15.102 2.283,-16.288 0.175,-20.529 -10.212,-20.541 -2.526,-0.002 -4.916,-0.129 -6.308,-0.333 -2.706,-0.397 -8.279,-0.569 -9.584,-0.296 m 8.944,1.158 c 1.292,0.205 3.54,0.323 6.196,0.326 6.781,0.006 8.756,0.942 10.235,4.85 1.144,3.022 0.315,15.414 -1.307,19.532 -2.284,5.801 -8.66,9.606 -16.084,9.598 -5.897,-0.007 -8.507,-1.829 -11.538,-8.057 -1.225,-2.516 -1.971,-3.724 -3.495,-5.653 -2.921,-3.7 -3.628,-5.425 -3.628,-8.853 0,-8.89 7.879,-13.605 19.621,-11.743 M 192,190.72 c -4.846,1.309 -7.131,3.426 -7.793,7.22 -0.467,2.671 -0.105,3.596 2.352,6.007 1.912,1.876 2.618,3.002 4.144,6.613 2.786,6.594 4.658,8.361 8.87,8.376 6.893,0.026 12.465,-5.773 13.119,-13.655 0.115,-1.379 0.454,-3.513 0.753,-4.742 1.793,-7.355 0.255,-9.405 -6.818,-9.089 -2.968,0.133 -3.418,0.102 -5.88,-0.416 -3.666,-0.771 -6.657,-0.878 -8.747,-0.314 m 8.336,1.177 c 2.356,0.48 3.078,0.534 6.491,0.482 6.244,-0.096 7.344,1.379 5.766,7.728 -0.307,1.232 -0.646,3.344 -0.755,4.693 -0.603,7.49 -5.275,12.782 -11.625,13.169 -3.913,0.239 -5.844,-1.277 -7.976,-6.258 -2.139,-4.999 -2.719,-5.981 -4.846,-8.203 -2.153,-2.25 -2.431,-2.721 -2.431,-4.117 0,-3.627 2.133,-6.181 6.229,-7.46 2.969,-0.927 4.735,-0.933 9.147,-0.034 m -9.267,2.044 c -5.609,0.82 -5.926,4.347 -0.746,8.314 2.159,1.653 3.045,2.731 3.697,4.495 0.297,0.805 0.789,2.137 1.094,2.961 1.441,3.896 4.022,5.711 6.783,4.77 4.746,-1.617 10.597,-14.379 8.116,-17.705 -1.042,-1.397 -1.284,-1.467 -5.176,-1.494 -2.863,-0.02 -3.952,-0.117 -5.584,-0.499 -4.35,-1.017 -5.893,-1.176 -8.184,-0.842 m 7.331,1.6 c 2.179,0.535 2.848,0.604 5.982,0.611 3.966,0.009 4.457,0.157 5.022,1.511 1.457,3.485 -3.308,13.673 -7.379,15.778 -2.229,1.153 -4.836,-0.637 -6.133,-4.211 -0.224,-0.618 -0.674,-1.868 -0.999,-2.778 -0.698,-1.954 -1.73,-3.206 -4.188,-5.077 -6.425,-4.891 -2.03,-8.222 7.695,-5.834 m -6.203,2.203 c -1.036,1.036 -0.699,2.436 1.109,4.603 0.489,0.586 1.441,2.231 2.115,3.653 2.624,5.538 5.409,6.519 8.716,3.07 3.924,-4.093 3.341,-8.765 -1.198,-9.608 -0.795,-0.147 -2.214,-0.536 -3.152,-0.864 -4.753,-1.66 -6.579,-1.866 -7.59,-0.854 m 6.328,1.406 c 1.535,0.507 3.333,1.022 3.994,1.144 3.842,0.711 4.426,3.542 1.54,7.462 -2.74,3.723 -5.212,3.111 -7.632,-1.889 -0.71,-1.467 -1.797,-3.316 -2.416,-4.108 -3.001,-3.844 -1.628,-4.637 4.514,-2.609 m -0.978,2.023 c -0.235,0.235 -0.427,0.551 -0.427,0.702 0,0.151 0.192,0.651 0.427,1.112 0.234,0.46 0.428,1.176 0.429,1.591 0.014,3.195 4.086,3.162 5.107,-0.041 0.744,-2.331 -3.805,-5.095 -5.536,-3.364 m 2.712,0.768 c 2.124,0.711 2.618,2.052 1.256,3.414 -1.303,1.302 -2.314,0.975 -2.549,-0.825 -0.073,-0.56 -0.278,-1.299 -0.456,-1.643 -0.692,-1.338 -0.207,-1.6 1.749,-0.946"
       stroke="none"
       fill="#000000"
       fill-rule="evenodd"
       style="fill:url(#radialGradient70398);fill-opacity:1" />
  </g>
</svg>
